<svg xmlns="http://www.w3.org/2000/svg" version="1.1" xmlns:xlink="http://www.w3.org/1999/xlink" xmlns:svgjs="http://svgjs.dev/svgjs" width="100%" height="100%" viewBox="0 0 1000 600"><rect width="1000" height="600" x="0" y="0" fill="#533549"/><g><rect width="333.3333333333333" height="333.3333333333333" y="151.10916317005456" fill="#f6b042" transform="matrix(0.9698420786443427,0,0,0.9698420786443427,0,-8.19239535813486)" x="128.88693237304688"/><path d="M322.5576569755383 315.5882717664858L322.5576569755383 315.5882717664858L331.33687265993456 315.5882717664858Q333.62584308589925 315.5882717664858 333.62584308589925 312.66186653835365L333.62584308589925 312.66186653835365Q333.62584308589925 310.17007594806296 331.65559006101824 306.9249533188472Q329.6563627269478 303.67983068963144 326.9617519723311 303.67983068963144L326.9617519723311 303.67983068963144Q325.07842187501836 303.67983068963144 319.7471489841639 304.3172654917988Q314.44485040249884 304.9547002939662 309.635115077054 305.3603406226182L309.635115077054 305.3603406226182L263.9426294853283 308.08392568642427L263.9426294853283 258.6247799000731L321.3117616803929 254.88709401463709Q324.23816690852505 254.65529954112165 327.57021246530906 254.65529954112165Q330.9022580220931 254.65529954112165 334.0314834145512 254.65529954112165L334.0314834145512 254.65529954112165L342.81069909894745 254.65529954112165Q345.09966952491214 254.65529954112165 345.09966952491214 251.757868622179L345.09966952491214 251.757868622179Q345.09966952491214 249.2371037226989 343.12941650003114 246.02095540267254Q341.1301891659607 242.77583277345678 338.43557841134407 242.77583277345678L338.43557841134407 242.77583277345678Q336.5522483140313 242.77583277345678 331.2209754231768 243.41326757562416Q325.9186768415118 244.0217280686021 321.1089415160669 244.4563427064435L321.1089415160669 244.4563427064435L264.3772441231697 248.19402859187954Q264.3772441231697 248.19402859187954 262.493914025857 247.46967086214386Q260.61058392854426 246.7453131324082 258.0028961014959 246.02095540267254Q255.3952082744475 245.26762336374748 253.51187817713475 245.26762336374748L253.51187817713475 245.26762336374748Q251.02008758684406 245.26762336374748 251.02008758684406 248.19402859187954L251.02008758684406 248.19402859187954Q251.02008758684406 249.03428355837292 251.10701051441237 250.19325592594996Q251.22290775117006 251.3232539843376 251.42572791549605 253.00376391732433L251.42572791549605 253.00376391732433Q251.86034255333743 255.49555450761505 251.86034255333743 258.5378569725048Q251.86034255333743 261.5511851282052 251.86034255333743 264.88323068498926L251.86034255333743 264.88323068498926L251.86034255333743 308.28674585075026Q250.81726742251809 308.28674585075026 249.861115219267 308.1708486139926Q248.93393732520536 308.08392568642427 247.890862194386 307.85213121290883L247.890862194386 307.85213121290883L247.4562475565446 307.85213121290883Q246.0075320970733 307.85213121290883 246.0075320970733 309.5326411458956L246.0075320970733 309.5326411458956Q246.0075320970733 311.61879140753433 247.7749649576283 314.4292993989087Q249.5423978181833 317.2398073902831 251.86034255333743 318.51467699461784L251.86034255333743 318.51467699461784L251.86034255333743 368.35048880043155Q251.86034255333743 370.8712536999117 251.74444531657974 374.6089395853477Q251.62854807982202 378.37559977997313 251.54162515225374 381.82354257351494Q251.42572791549605 385.2714853670567 251.42572791549605 386.92302099085396L251.42572791549605 386.92302099085396Q251.42572791549605 389.6466060546601 254.7577734722801 391.2112187508891Q258.11879333825357 392.77583144711815 261.0162242571962 392.77583144711815L261.0162242571962 392.77583144711815Q264.5800642874957 392.77583144711815 264.5800642874957 390.68968118547946L264.5800642874957 390.68968118547946Q264.5800642874957 388.16891628599933 264.464167050738 383.9966157627219Q264.3772441231697 379.82431523944445 264.1454496496543 375.44919455184106Q263.9426294853283 371.0740738642376 263.9426294853283 368.5822832739469L263.9426294853283 368.5822832739469L263.9426294853283 318.2828825211024L309.83793524138 315.7910919308117Q312.7643404695121 315.5882717664858 316.09638602629616 315.5882717664858Q319.4284315830802 315.5882717664858 322.5576569755383 315.5882717664858Z " fill="#533549" transform="matrix(0.9698420786443427,0,0,0.9698420786443427,0,-8.19239535813486)"/><path d="M556.6068386885751 260.07907346744537L556.6068386885751 260.07907346744537L556.6068386885751 383.1982860680144Q556.6068386885751 383.1982860680144 554.0026720295737 383.40083236371447Q551.3985053705721 383.6033786594146 549.7202646347712 383.6033786594146L549.7202646347712 383.6033786594146Q547.8394776032701 383.6033786594146 546.7110053843696 384.6450453230152Q545.553597980369 385.6867119866158 545.553597980369 387.16240642671664L545.553597980369 387.16240642671664Q545.553597980369 389.85337864101814 549.3151720433709 390.4899527132185L549.3151720433709 390.4899527132185Q554.9285979527742 391.32907308111896 562.8568386701786 391.84990641291927Q570.756144202483 392.3707397447196 575.3568386333857 392.3707397447196L575.3568386333857 392.3707397447196Q584.0952645335906 392.3707397447196 595.1485052417968 391.84990641291927Q606.1728107649029 391.32907308111896 617.226051473109 389.01425827311766Q628.2503569962153 386.7283786502164 637.6253569686205 381.8383323683137Q647.0003569410258 376.9482860864109 652.729523590829 368.180925001106Q658.4586902406322 359.4424991009011 658.4586902406322 345.9008324740935L658.4586902406322 345.9008324740935Q658.4586902406322 335.28161954238755 652.9610050716291 326.94828623358285Q647.434384717526 318.6149529247782 638.580218076921 313.6091659024754Q629.7260514363161 308.6033788801726 619.3093848003102 307.9957399930722L619.3093848003102 307.9957399930722Q625.3568384862136 305.91240666587106 631.6936440231173 301.5142585306686Q638.0593847451207 297.14504558056615 642.4285976952232 290.37421226716236Q646.7978106453256 283.6033789537586 646.7978106453256 274.66240675785355L646.7978106453256 274.66240675785355Q646.7978106453256 265.6924993768485 642.110310659123 258.60337902734454Q637.4228106729204 251.51425867784056 627.3244310730147 247.26078646813818Q617.226051473109 242.9783790733358 600.7619311511999 242.9783790733358L600.7619311511999 242.9783790733358Q592.6311441380954 242.9783790733358 582.6485052785897 243.81749944123627Q572.6369312339841 244.6566198091367 564.1878571847793 246.10337906413753Q555.7677183206747 247.57907350423835 551.6010516662723 249.2283790549393L551.6010516662723 249.2283790549393Q549.9228109304713 250.06749942283977 549.9228109304713 251.9482864543408L549.9228109304713 251.9482864543408Q549.9228109304713 254.2341660772421 552.0061442576725 256.95407347664366Q554.0894775848737 259.64504569094515 556.6068386885751 260.07907346744537ZM571.3927182746834 306.7225918486715L571.3927182746834 306.7225918486715L568.6728108752818 306.7225918486715L568.6728108752818 257.15661977234373Q575.1253571525855 255.4783790365428 583.16933861039 254.55245311334227Q591.1843848830945 253.59759200504175 598.2735052325984 253.59759200504175L598.2735052325984 253.59759200504175Q616.1843848095085 253.59759200504175 625.4436440415137 258.9216660634447Q634.7318384586189 264.2457401218477 634.7318384586189 275.90661971715423L634.7318384586189 275.90661971715423Q634.7318384586189 283.8059252494587 629.0894773641157 289.85337893536206Q623.4760514547127 295.90083262126547 615.345264441608 299.6624066842676Q607.2144774285034 303.3950455621697 599.5177181918991 304.8707400022705L599.5177181918991 304.8707400022705Q596.3927182010974 305.2758325936707 591.3869311787946 305.796665925471Q586.3811441564918 306.3174992572713 581.0860052831888 306.5200455529714Q575.7619312247858 306.7225918486715 571.3927182746834 306.7225918486715ZM602.0061441105006 315.05592515747617L602.0061441105006 315.05592515747617L606.1728107649029 315.05592515747617Q612.4228107465065 315.28740663827637 619.3961903556103 317.0524529293773Q626.3985051498142 318.81749922047834 632.5327643910177 322.46333254308036Q638.6670236322211 326.10916586568237 642.5443384356232 332.04087881118573Q646.3927180539255 337.97259175668904 646.3927180539255 346.5374065462938L646.3927180539255 346.5374065462938Q646.3927180539255 357.35916577369994 640.7503569594223 364.24573982750377Q635.1369310500191 371.10337869620764 625.9644773733139 375.18323979530993Q616.7920236966088 379.23416570931215 606.288551505303 380.9992120004132Q595.7561441288971 382.7642582915142 585.8603108246915 383.28509162331443Q575.964477520486 383.80592495511473 568.6728108752818 383.80592495511473L568.6728108752818 383.80592495511473L568.6728108752818 316.53161959757705Q575.5593849290857 315.89504552537664 585.1369311971911 315.48995293397644Q594.7144774652965 315.05592515747617 602.0061441105006 315.05592515747617ZM762.6253566006906 315.48995293397644L762.6253566006906 315.48995293397644L771.3927176859955 315.48995293397644Q773.6785973088968 315.48995293397644 773.6785973088968 312.5674992388748L773.6785973088968 312.5674992388748Q773.6785973088968 310.07907332027344 771.7110047220957 306.83833258907157Q769.7144769501946 303.59759185786976 767.0235047358931 303.59759185786976L767.0235047358931 303.59759185786976Q765.142717704392 303.59759185786976 759.818643645989 304.23416593007016Q754.523504772686 304.8707400022705 749.7202640460833 305.2758325936707L749.7202640460833 305.2758325936707L704.0894771433577 307.9957399930722L704.0894771433577 258.60337902734454L761.3811436413899 254.87074014944247Q764.3035973364915 254.6392586686423 767.6311436229934 254.6392586686423Q770.9586899094952 254.6392586686423 774.083689900297 254.6392586686423L774.083689900297 254.6392586686423L782.8510509856019 254.6392586686423Q785.1369306085032 254.6392586686423 785.1369306085032 251.7457401586407L785.1369306085032 251.7457401586407Q785.1369306085032 249.2283790549393 783.1693380217021 246.0165735088375Q781.172810249801 242.77583277763569 778.4818380354994 242.77583277763569L778.4818380354994 242.77583277763569Q776.6010510039985 242.77583277763569 771.2769769455955 243.41240684983603Q765.9818380722925 244.02004573693637 761.1785973456898 244.4540735134366L761.1785973456898 244.4540735134366L704.5235049198579 248.1867123913387Q704.5235049198579 248.1867123913387 702.642717888357 247.4633327638383Q700.761930856856 246.7399531363379 698.1577641978545 246.0165735088375Q695.553597538853 245.26425869623708 693.6728105073519 245.26425869623708L693.6728105073519 245.26425869623708Q691.1843845887505 245.26425869623708 691.1843845887505 248.1867123913387L691.1843845887505 248.1867123913387Q691.1843845887505 249.02583275923917 691.2711901440506 250.18324016323982Q691.3869308844506 251.31171238214046 691.5894771801508 252.98995311794138L691.5894771801508 252.98995311794138Q692.023504956651 255.4783790365428 692.023504956651 258.5165734720445Q692.023504956651 261.5258327224462 692.023504956651 264.8533790089481L692.023504956651 264.8533790089481L692.023504956651 308.19828628877235Q690.9818382930505 308.19828628877235 690.02697718475 308.0825455483723Q689.1010512615494 307.9957399930722 688.0593845979488 307.76425851227214L688.0593845979488 307.76425851227214L687.6253568214486 307.76425851227214Q686.1785975664477 307.76425851227214 686.1785975664477 309.4424992480731L686.1785975664477 309.4424992480731Q686.1785975664477 311.5258325752742 687.9436438575488 314.3325455299758Q689.7086901486498 317.1392584846774 692.023504956651 318.4124066290781L692.023504956651 318.4124066290781L692.023504956651 368.180925001106Q692.023504956651 370.69828610480744 691.9077642162509 374.4309249827095Q691.7920234758509 378.1924990457116 691.7052179205508 381.63578607261354Q691.5894771801508 385.0790730995155 691.5894771801508 386.7283786502164L691.5894771801508 386.7283786502164Q691.5894771801508 389.4482860496179 694.9170234666526 391.0107860450188Q698.2735049382545 392.5732860404197 701.1670234482561 392.5732860404197L701.1670234482561 392.5732860404197Q704.7260512155582 392.5732860404197 704.7260512155582 390.4899527132185L704.7260512155582 390.4899527132185Q704.7260512155582 387.97259160951705 704.610310475158 383.80592495511473Q704.5235049198579 379.6392583007124 704.2920234390579 375.27004535060996Q704.0894771433577 370.9008324005075 704.0894771433577 368.41240648190615L704.0894771433577 368.41240648190615L704.0894771433577 318.18092514827794L749.9228103417835 315.69249922967657Q752.845264036885 315.48995293397644 756.172810323387 315.48995293397644Q759.5003566098889 315.48995293397644 762.6253566006906 315.48995293397644ZM839.7086897071338 257.35916606804386L839.9401711879339 257.35916606804386L839.9401711879339 368.41240648190615Q839.9401711879339 373.82328609560915 839.7086897071338 379.1184249689121Q839.5061434114338 384.44249902731514 839.5061434114338 386.9309249459165L839.5061434114338 386.9309249459165Q839.5061434114338 389.650832345318 842.8336896979356 391.2133323407189Q846.1901711695375 392.7758323361198 849.083689679539 392.7758323361198L849.083689679539 392.7758323361198Q850.5593841196398 392.7758323361198 851.6010507832405 392.25499900431953Q852.6427174468411 391.7341656725192 852.6427174468411 390.6924990089186L852.6427174468411 390.6924990089186Q852.6427174468411 387.16240642671664 852.3244304107409 381.11495274081324Q852.0061433746407 375.06749905490983 852.0061433746407 368.6149527776062L852.0061433746407 368.6149527776062L852.0061433746407 256.5200457001434L878.4818377411556 255.07328644514257Q879.5235044047561 255.07328644514257 880.7677173640568 254.95754570474253Q882.0119303233575 254.87074014944247 883.2561432826583 254.87074014944247L883.2561432826583 254.87074014944247Q888.261930304961 254.87074014944247 893.0651710315638 255.1600920004426Q897.8394765730663 255.4783790365428 899.9228099002676 255.4783790365428L899.9228099002676 255.4783790365428Q902.2086895231689 255.4783790365428 902.2086895231689 252.35337904574104L902.2086895231689 252.35337904574104Q902.2086895231689 249.4309253506394 900.4436432320679 246.30592535983766Q898.6785969409668 243.1809253690359 896.1901710223655 243.1809253690359L896.1901710223655 243.1809253690359L895.5535969501652 243.1809253690359Q893.0651710315638 243.61495314553616 888.059384009261 244.02004573693637Q883.0535969869582 244.4540735134366 878.2503562603554 244.85916610483685L878.2503562603554 244.85916610483685L813.261930525719 248.62074016783896Q811.8151712707181 248.62074016783896 810.0211897945171 248.707545723139Q808.2561435034162 248.82328646353906 806.6068379527153 248.82328646353906L806.6068379527153 248.82328646353906Q801.8035972261125 248.82328646353906 797.6369305717103 248.62074016783896Q793.4702639173079 248.38925868703882 791.7920231815069 248.38925868703882L791.7920231815069 248.38925868703882Q789.5061435586057 248.38925868703882 789.5061435586057 251.51425867784056L789.5061435586057 251.51425867784056Q789.5061435586057 254.2341660772421 791.3869305901068 257.4749068084439Q793.2677176216077 260.6867123545457 795.9586898359094 260.6867123545457L795.9586898359094 260.6867123545457L796.1901713167094 260.6867123545457Q798.4760509396107 260.48416605884563 803.3660972215134 259.7607864313452Q808.2561435034162 259.03740680384476 813.4644768214191 258.8059253230447L813.4644768214191 258.8059253230447Q813.4644768214191 258.8059253230447 817.0235045887212 258.60337902734454Q820.5535971709231 258.4008327316444 825.4436434528259 258.08254569554424Q830.3336897347285 257.76425865944407 834.500356389131 257.56171236374394Q838.6670230435332 257.35916606804386 839.7086897071338 257.35916606804386L839.7086897071338 257.35916606804386Z " fill="#f6b042" transform="matrix(0.9698420786443427,0,0,0.9698420786443427,0,-8.19239535813486)"/></g></svg>