<svg xmlns="http://www.w3.org/2000/svg" version="1.1" xmlns:xlink="http://www.w3.org/1999/xlink" xmlns:svgjs="http://svgjs.dev/svgjs" width="100%" height="100%" viewBox="0 0 1000 600"><rect width="1000" height="600" x="0" y="0" fill="#ccf381"/><g><circle r="166.66666666666666" cx="366.7207895914713" cy="388.94297363713497" fill="#4831d4" transform="matrix(0.6248310418621688,0,0,0.6248310418621689,0,56.976351479668196)"/><path d="M346.1255584777178 462.2366266164732L320.4112722444256 463.10964250710964Q318.1493674368675 453.6651978720425 315.5700023054416 441.52234048409895Q312.9906371740157 429.37948309615547 309.69698631388724 415.5302764674225Q306.4430179942422 401.68106983868955 302.99063697217986 387.07789494077053L302.99063697217986 387.07789494077053Q300.72873216462176 377.67313284618683 298.42714481658015 368.38741837305355Q296.1255574685386 359.10170389992027 293.8636526609805 349.815989426787Q291.5620653129389 340.5302749536537 289.4192081268312 331.8001160472891Q287.27635094072355 323.10963968140794 285.5700016999341 314.81598872036153L285.5700016999341 314.81598872036153L307.55412912777956 314.81598872036153Q308.98270058518466 323.94297303156094 310.5700022045237 332.6731319379256Q312.1573038238627 341.36360830380664 313.42714511933394 349.2207513195348Q314.69698641480517 357.077894335263 316.2842880341442 364.65725956760684Q317.87158965348317 372.2366247999507 318.9827007870205 379.10170430359193L318.9827007870205 379.10170430359193Q321.28428813506207 390.25249817944854 323.2684151592359 401.0858317314374Q325.2922247238931 411.9588478239097 327.7128596933851 423.22868932121673Q330.1334946628771 434.5382133590073 332.71285979430303 447.0778961517855L332.71285979430303 447.0778961517855Q334.4192090350925 438.5064674073548 336.28428843781586 428.22868942213466Q338.1493678405392 417.9509114369145 340.133494864713 406.52233977767355Q342.15730442937024 395.0937681184326 344.141431453544 383.109640892423L344.141431453544 383.109640892423Q345.84778069433344 373.1096406905871 347.5541299351229 363.10964048875127Q349.30016171639585 353.10964028691546 350.84778079525137 343.1096400850796Q352.4350824145904 333.1096398832438 354.14143165537985 323.6651952481766L354.14143165537985 323.6651952481766L379.57794010528767 323.6651952481766Q381.00651156269276 333.9429732333968 382.4350830200979 344.3794813805508Q383.863654477503 354.8159895277049 385.4112735563586 364.65725956760684Q386.9985751756976 374.5382121479922 388.4271466331027 383.94297424257593L388.4271466331027 383.94297424257593Q390.7287339811443 398.5064666000115 392.7128610053181 411.08583193327325Q394.6969880294919 423.66519726653496 396.28428964883085 432.79218157773437Q397.8715912681699 441.9588484294172 398.7049246183229 447.0778961517855L398.7049246183229 447.0778961517855Q400.4112738591123 438.8239277312226 402.4350834237696 430.2524989867919Q404.4192104479433 421.6810702423612 406.2842898506667 412.9509113359966Q408.14936925339003 404.220752429632 410.13349627756384 395.3715459018169Q412.1573058422211 386.5223393740019 414.1414328663949 377.67313284618683L414.1414328663949 377.67313284618683Q415.84778210718434 369.6572596685248 417.55413134797374 361.5223388694123Q419.3001631292467 353.38741807029976 421.00651237003615 345.3715448926377Q422.71286161082554 337.39535425545915 424.1414330682307 329.53821123973097Q425.5700045256358 321.6810682240028 426.99857598304095 313.9429728297251L426.99857598304095 313.9429728297251L447.87159227734907 314.22075061310943Q445.57000492930746 322.5144015741558 443.2684175812659 330.9667826971361Q441.0065127737078 339.3794812796329 438.86365558760014 347.79217986212973Q436.72079840149246 356.24456098511 434.6969888368352 364.65725956760684Q432.7128618126614 373.1096406905871 430.1334966812355 381.68106943501783L430.1334966812355 381.68106943501783Q426.99857598304095 394.81599033504824 423.86365528484635 408.228689018463Q420.7287345866518 421.6810702423612 417.55413134797374 435.37154670916027Q414.4192106497792 449.10170571644284 411.28428995158464 463.94297585726264L411.28428995158464 463.94297585726264L385.57000371829247 463.10964250710964Q383.2684163702509 449.10170571644284 381.2842893460771 436.5223403831811Q379.3001623219034 423.9429750499193 377.43508291918 412.236625607294Q375.57000351645667 400.53027616466875 373.58587649228286 389.3794822888121L373.58587649228286 389.3794822888121Q371.8398447110099 379.6572598703606 370.01444784877003 370.093767613843Q368.1493684460467 360.53027535732537 366.44301920525726 350.80805293887386L366.44301920525726 350.80805293887386Q364.69698742398435 360.53027535732537 362.9906381831949 369.5382120470743Q361.28428894240545 378.5064661963398 359.8557174850003 387.07789494077053L359.8557174850003 387.07789494077053Q357.55413013695875 399.37948249064794 355.29222532940065 411.5223398785915Q352.99063798135904 423.66519726653496 350.72873317380095 435.96678481641237Q348.42714582575934 448.2286898258063 346.1255584777178 462.2366266164732L346.1255584777178 462.2366266164732Z " fill="#ccf381" transform="matrix(0.6248310418621688,0,0,0.6248310418621689,0,56.976351479668196)"/><path d="M664.9463263088037 461.6819564253138L647.430584987058 461.0809260858421Q647.6309284335485 457.9899129114164 647.8312718800391 451.06375376131433Q648.0316153265296 444.1662151035681 648.3464407424434 435.2080009962047Q648.6612661583572 426.24978688884136 648.8616096048477 416.66192194965055Q649.0619530513382 407.0740570104596 649.1764350207613 398.2303248725195Q649.2622964978289 389.3579722422234 649.2622964978289 382.9756024468815L649.2622964978289 382.9756024468815Q649.2622964978289 373.9029063700949 649.0619530513382 363.0843602596049Q648.8616096048477 352.265814149115 648.7471276354245 342.5920877328568Q648.6612661583572 332.8897408242428 648.4609227118665 326.62185299832396Q648.2319587730202 320.32534468004934 648.2319587730202 320.32534468004934L648.2319587730202 320.32534468004934L664.7173623699573 320.52568812653993Q664.7173623699573 320.52568812653993 664.63150089289 323.8170447474562Q664.5170189234668 327.1370218607282 664.4311574463993 333.0042227936659Q664.3166754769762 338.8714237266036 664.202193507553 346.91378207858156Q664.1163320304856 354.95614043055957 664.0018500610624 364.6298668468178Q663.9159885839952 374.30359326307604 663.9159885839952 384.83593445000804L663.9159885839952 384.83593445000804Q663.9159885839952 395.3396551445843 664.0018500610624 406.24406273214163Q664.1163320304856 417.17709081205476 664.3166754769762 427.07978116715935Q664.5170189234668 436.95385102990815 664.63150089289 444.79586593539557Q664.7173623699573 452.60926034852724 664.8318443393805 457.15991863309836Q664.9463263088037 461.6819564253138 664.9463263088037 461.6819564253138L664.9463263088037 461.6819564253138ZM616.7207966892915 331.65905965294365L616.7207966892915 331.65905965294365L617.3218270287632 317.03398805913315Q617.3218270287632 317.03398805913315 621.4431779279975 317.03398805913315Q625.5645288272317 317.03398805913315 631.5462117295926 316.91950608970996Q637.5278946319534 316.83364461264256 643.5095775343143 316.83364461264256Q649.4912604366751 316.83364461264256 653.1833039505725 316.83364461264256L653.1833039505725 316.83364461264256Q656.2743171249982 316.83364461264256 661.426005749041 316.83364461264256Q666.5776943730839 316.83364461264256 672.5593772754448 316.71916264321936Q678.5410601778055 316.6046806737962 683.8930922483389 316.5188191967288Q689.2451243188724 316.4043372273057 692.6509629092118 316.4043372273057Q696.0568014995513 316.4043372273057 696.0568014995513 316.4043372273057L696.0568014995513 316.4043372273057L696.657831839023 329.9990710963076Q696.657831839023 329.9990710963076 693.4809571875298 329.9990710963076Q690.275462043681 329.9990710963076 685.3241168661286 330.11355306573074Q680.4013921809321 330.22803503515394 674.7345346944851 330.31389651222133Q669.0676772080379 330.42837848164453 664.0018500610624 330.42837848164453Q658.9646434064427 330.42837848164453 655.8736302320171 330.42837848164453L655.8736302320171 330.42837848164453Q652.7826170575913 330.42837848164453 647.9457538494623 330.62872192813506Q643.0802701489774 330.8290653746256 637.7282380784441 330.9435473440488Q632.3762060079106 331.0294088211162 627.5393427997815 331.2583727599625Q622.7024795916524 331.45871620645306 619.6973278942941 331.54457768352046Q616.7207966892915 331.65905965294365 616.7207966892915 331.65905965294365ZM728.3979578615979 461.4816129788232L713.7728862677875 461.4816129788232Q713.7728862677875 461.4816129788232 713.8873682372107 454.6699357981443Q713.973229714278 447.8868791098213 714.0877116837012 437.0683329993313Q714.1735731607687 426.24978688884136 714.2880551301919 413.8857341911385Q714.4025370996148 401.5216814934357 714.4025370996148 390.18796652054147L714.4025370996148 390.18796652054147Q714.4025370996148 381.1152704437549 714.2880551301919 371.12671861158293Q714.1735731607687 361.138166779411 714.0877116837012 351.43581987079693Q713.973229714278 341.76209345453873 713.8873682372107 333.9200785490513Q713.7728862677875 326.1066841359197 713.7728862677875 321.35568240485793Q713.7728862677875 316.6046806737962 713.7728862677875 316.6046806737962L713.7728862677875 316.6046806737962L728.5983013080886 316.6046806737962Q728.5983013080886 316.6046806737962 728.5124398310211 323.2160144079845Q728.3979578615979 329.79872764981707 728.1976144151074 340.30244834439327Q727.9972709686169 350.8347895313253 727.6824455527033 363.1988422290281Q727.3676201367894 375.56289492673096 727.2817586597221 387.4117787620295Q727.1672766902989 399.260662597328 727.1672766902989 408.1043947352682L727.1672766902989 408.1043947352682Q727.1672766902989 419.23776626167194 727.3676201367894 428.91149267793014Q727.5679635832801 438.61383958654415 727.7969275221262 445.91206513727155Q727.9972709686169 453.2389111803547 728.1976144151074 457.36026207958895Q728.3979578615979 461.4816129788232 728.3979578615979 461.4816129788232L728.3979578615979 461.4816129788232ZM774.1621251385118 462.11126381065066L774.1621251385118 462.11126381065066L757.6767215415748 461.28126953233266Q757.8770649880653 457.76094897257 758.1918904039792 452.7237423179504Q758.478095327537 447.68653566333074 758.7929207434508 441.0752019291424Q759.1077461593645 434.4924886873099 759.308089605855 426.33564836590875Q759.5084330523457 418.20742853686335 759.5084330523457 408.53370212060514L759.5084330523457 408.53370212060514Q759.5084330523457 405.8433758391605 759.5084330523457 402.3516757717537Q759.5084330523457 398.83135521199114 759.5084330523457 394.71000431275684Q759.5084330523457 390.58865341352254 759.5084330523457 386.06661562130716L759.5084330523457 386.06661562130716Q759.5084330523457 378.22460071581975 758.077408434556 373.7884244006718Q756.6463838167663 369.38086857787954 754.0705395047448 367.52053657475295Q751.4946951927234 365.66020457162637 747.9743746329607 365.66020457162637L747.9743746329607 365.66020457162637Q743.2519933942549 365.66020457162637 738.38650969377 369.5812120243701Q733.5496464856408 373.50221947711384 730.3727718341477 382.7752590003909Q727.1672766902989 392.04829852366805 727.1672766902989 408.1043947352682L727.1672766902989 408.1043947352682L719.3252617848113 417.8067416438823Q719.3252617848113 410.16507018488534 719.9549126166389 401.5216814934357Q720.5845634484663 392.84967230963025 722.4162749592372 384.40662706467117Q724.2766069623638 375.96358181971203 727.7969275221262 368.95156119254267Q731.2886275895332 361.9395405653732 736.9554850759803 357.81818966613895Q742.6223425624273 353.69683876690465 750.865044360896 353.69683876690465L750.865044360896 353.69683876690465Q757.2474141562379 353.69683876690465 761.9984158872996 356.78785194133036Q766.7207971260057 359.87886511575607 769.5256053768733 366.8050242658581Q772.3017931353854 373.7025629236044 772.3017931353854 385.03627789649863L772.3017931353854 385.03627789649863Q772.3017931353854 392.84967230963025 772.3017931353854 396.1696494229023Q772.3017931353854 399.4610060438186 772.3017931353854 401.32133804694513Q772.3017931353854 403.1530495577159 772.3017931353854 407.0740570104596L772.3017931353854 407.0740570104596Q772.3017931353854 418.40777198335394 772.5021365818759 426.9652991977362Q772.7024800283664 435.5228264121185 773.01730544428 442.0196781768836Q773.332130860194 448.48790944929294 773.6469562761076 453.3533931497778Q773.9331611996656 458.19025635790695 774.1621251385118 462.11126381065066ZM831.0310434494736 463.94297532142144L831.0310434494736 463.94297532142144Q819.4969850300888 463.94297532142144 813.0859947423912 457.8754309419932Q806.7036249470491 451.807886562565 803.6126117726235 441.7048527609699L803.6126117726235 441.7048527609699Q801.3515928765157 434.063181301973 800.6360805676209 424.90462374811904Q799.920568258726 415.7460661942651 799.920568258726 405.8433758391605L799.920568258726 405.8433758391605Q799.920568258726 397.600674040692 800.7219420446884 390.07348455111827Q801.5519363230064 382.5462950615446 803.6126117726235 376.1639252662026L803.6126117726235 376.1639252662026Q807.1329323323862 365.86054801811696 814.1163324671998 359.59266019219814Q821.1283530943692 353.2961518739236 833.2920623455814 353.2961518739236L833.2920623455814 353.2961518739236Q842.9657887618396 353.2961518739236 848.5467847712193 357.81818966613895Q854.0991602882434 362.3688479507101 856.5891431231973 370.0963808867744Q859.0505054657956 377.8239138228386 859.0505054657956 387.2972967926063L859.0505054657956 387.2972967926063Q859.0505054657956 393.0786362484766 858.3349931569007 399.0316986584817Q857.6194808480059 405.0133815608425 856.5891431231973 411.1954079096939L856.5891431231973 411.1954079096939L844.6257773184757 400.6916872151177Q845.255428150303 396.1696494229023 845.6561150432842 391.93381655424486Q846.0568019362654 387.6979836855874 846.0568019362654 384.00594017169004L846.0568019362654 384.00594017169004Q846.0568019362654 378.22460071581975 844.8261207649662 373.9029063700949Q843.5954395936672 369.5812120243701 840.6189083886645 367.0912291894161Q837.6137566913062 364.6298668468178 832.0613811742824 364.6298668468178L832.0613811742824 364.6298668468178Q826.0796982719214 364.6298668468178 822.3590342656682 368.7512177460521Q818.666990751771 372.8725686452863 816.6063153021537 379.05459499413774L816.6063153021537 379.05459499413774Q814.7459832990271 384.83593445000804 814.1163324671998 392.04829852366805Q813.5153021277281 399.260662597328 813.5153021277281 406.0437192856511L813.5153021277281 406.0437192856511Q813.5153021277281 411.1954079096939 813.6011636047954 416.34709653373676Q813.7156455742186 421.4987851577796 814.1163324671998 426.13530491941816Q814.5456398525366 430.7718246810567 815.3756341308547 434.89317558029103L815.3756341308547 434.89317558029103Q817.0070021951349 442.73519048577845 820.8135276784553 447.57205369390755Q824.6486736541317 452.40891690203665 831.8610377277917 452.40891690203665L831.8610377277917 452.40891690203665Q837.4134132448157 452.40891690203665 840.8192518351552 449.8330725900152Q844.2250904254945 447.2572282779938 845.6561150432842 443.0500159016921Q847.0871396610739 438.8141830330347 847.0871396610739 434.063181301973L847.0871396610739 434.063181301973Q847.0871396610739 432.4318132376928 847.0012781840064 430.68596320398933Q846.8867962145832 428.91149267793014 846.4861093216023 427.2801246136499L846.4861093216023 427.2801246136499L858.6498185728146 427.2801246136499Q859.0505054657956 429.340800063267 859.1649874352188 431.48733698995153Q859.2508489122861 433.6624944089919 859.2508489122861 435.723169858609L859.2508489122861 435.723169858609Q859.2508489122861 443.765528210587 856.1598357378605 450.147898005929Q853.0688225634349 456.53026780127095 846.800934737516 460.25093180752407Q840.5044264192413 463.94297532142144 831.0310434494736 463.94297532142144ZM805.4729437757501 412.6550530198394L805.4729437757501 412.6550530198394L805.2726003292596 400.49134376862713L856.5891431231973 400.06203638329026L856.5891431231973 411.1954079096939Q856.5891431231973 411.1954079096939 853.3836479793486 411.1954079096939Q850.1781528354995 411.1954079096939 844.9406027343894 411.39575135618446Q839.6744321409233 411.62471529503085 832.9772369296677 411.7105767720982Q826.2800417184119 411.8250587415214 819.1821596141751 412.0254021880119Q812.0556570175827 412.2257456345025 805.4729437757501 412.6550530198394ZM976.7093495404629 461.4816129788232L976.7093495404629 461.4816129788232L955.072257319483 461.4816129788232Q953.6412327016933 452.8382242873735 951.2657318361626 441.3900273450561Q948.8902309706316 429.94183040273873 946.3143866586101 416.7764039190737Q943.7385423465887 403.58235694305284 940.8478726186536 389.9876230740509L940.8478726186536 389.9876230740509Q938.7871971690365 379.6842458259652 936.7265217194195 369.5812120243701Q934.6658462698022 359.47817822277494 932.7196527896083 350.0047952530073Q930.7734593094142 340.5314122832396 928.9989887833551 332.1742285153479Q927.2531387496517 323.8170447474562 925.822114131862 317.03398805913315L925.822114131862 317.03398805913315L941.8782103434621 317.03398805913315Q944.3681931784163 329.5983842033265 946.629212074524 341.6476114851156Q948.8902309706316 353.69683876690465 951.1512498667394 365.1450357092221Q953.4408892552028 376.5932326515395 955.5015647048199 387.92694762443375L955.5015647048199 387.92694762443375Q956.9325893226096 395.13931169809376 958.2777524633318 402.2371938023305Q959.6229156040542 409.33507590656734 961.053940221844 416.34709653373676Q962.4849648396334 423.3591171609062 963.9446099497791 430.3711377880756Q965.3756345675688 437.383158415245 966.8352796777142 444.36655855005864L966.8352796777142 444.36655855005864Q968.0659608490132 438.8141830330347 969.4969854668029 432.2314697912022Q970.9566305769483 425.6201360570139 972.5021371641612 418.5222539527771Q974.0476437513742 411.39575135618446 975.5931503385871 403.8971823589666Q977.1386569258 396.3699928693929 978.5696815435895 388.72832141039595L978.5696815435895 388.72832141039595Q980.8307004396972 377.39460643750175 982.8913758893143 366.3757168805212Q984.9520513389316 355.3568273235407 986.8123833420582 345.36827549136876Q988.6727153451848 335.37972365919677 989.9033965164838 327.53770875370935L989.9033965164838 327.53770875370935L1008.2491321165473 327.3373653072188Q1009.4798132878466 334.5497293808788 1011.1398018444827 344.42379924362757Q1012.7711699087629 354.3264895987321 1014.9463273278031 365.77468654104956Q1017.0928642544877 377.19426299101116 1019.5828470894417 389.558315688714L1019.5828470894417 389.558315688714Q1020.8135282607409 396.3699928693929 1022.2445528785306 403.38201349656225Q1023.704197988676 410.36541363137593 1025.1352226064657 417.29157278147795Q1026.5948677166111 424.1891114392242 1028.0258923344009 430.88630665047987Q1029.4569169521906 437.5835018617356 1030.916562062336 443.96587165707757L1030.916562062336 443.96587165707757Q1032.3475866801257 436.75350758341756 1034.2079186832523 428.11011889196794Q1036.0682506863789 419.4381097081625 1038.0144441665727 409.44955787599054Q1039.9892581391225 399.4610060438186 1042.0499335887396 388.95728534924234L1042.0499335887396 388.95728534924234Q1044.5112959313378 376.7935760980301 1047.0871402433593 364.1146979844135Q1049.6629845553807 351.43581987079693 1052.124346897979 338.8714237266036Q1054.6143297329331 326.3070275824102 1056.8753486290407 314.54400522417905L1056.8753486290407 314.54400522417905L1071.9297276081882 314.3436617776885Q1070.269739051552 321.9853332366854 1068.3235455713582 331.0294088211162Q1066.3487315988084 340.10210489790273 1064.2880561491913 350.0047952530073Q1062.227380699574 359.87886511575607 1060.0808437728897 370.29672433326493Q1057.9056863538494 380.7145835507738 1055.8450109042321 391.01796079885946L1055.8450109042321 391.01796079885946Q1053.1546846227875 404.6126946678614 1050.578840310766 417.5777777050359Q1048.0029959987448 430.5714812345662 1045.8564590720603 441.79071423803725Q1043.68130165302 453.0385677338641 1042.0499335887396 461.4816129788232L1042.0499335887396 461.4816129788232L1019.3825036429512 461.28126953233266Q1017.9228585328058 453.2389111803547 1016.2914904685254 444.59552248890503Q1014.6315019118895 435.92351330509956 1012.8856518781861 426.9652991977362Q1011.1398018444827 418.0070850903728 1009.4798132878466 409.0488709830094Q1007.8198247312105 400.06203638329026 1005.9881132204398 391.4186476918406L1005.9881132204398 391.4186476918406Q1004.7288115567849 384.83593445000804 1003.4981303854856 378.739769578224Q1002.2674492141866 372.6722251987958 1001.0367680428874 366.8908857429255Q999.8060868715884 361.138166779411 998.5467852079335 355.98647815536816L998.5467852079335 355.98647815536816Q997.7454114219713 360.50851594758353 996.6005917277396 365.86054801811696Q995.4557720335076 371.2125800886503 994.2250908622086 377.19426299101116Q992.9944096909096 383.17594589337205 991.7637285196104 389.558315688714L991.7637285196104 389.558315688714Q989.9033965164838 398.2303248725195 988.0430645133572 407.2744004569502Q986.1827325102306 416.34709653373676 984.2365390300367 425.6201360570139Q982.2903455498426 434.89317558029103 980.430013546716 443.96587165707757Q978.5696815435895 453.0385677338641 976.7093495404629 461.4816129788232ZM1140.9623551703621 461.4816129788232L1128.1689950873224 461.4816129788232L1128.1689950873224 438.1845322012073L1127.3390008090043 385.86627217481663Q1127.1386573625139 373.7025629236044 1122.816963016789 368.43639233013835Q1118.4952686710642 363.1988422290281 1112.3132423222128 363.1988422290281L1112.3132423222128 363.1988422290281Q1105.3012216950435 363.1988422290281 1101.895383104704 368.55087429956154Q1098.4895445143645 373.9029063700949 1098.4895445143645 381.7449212755824L1098.4895445143645 381.7449212755824Q1098.4895445143645 384.40662706467117 1098.9188518997014 387.18281482318315Q1099.3195387926826 389.9876230740509 1100.1495330710006 392.84967230963025L1100.1495330710006 392.84967230963025L1088.186167266279 393.4793231414577Q1087.3847934803166 389.9876230740509 1086.8696246179125 386.6676459607788Q1086.354455755508 383.3762893398626 1086.354455755508 380.28527616543687L1086.354455755508 380.28527616543687Q1086.354455755508 371.8422309204778 1089.4454689299337 365.86054801811696Q1092.5364821043595 359.87886511575607 1098.4036830372972 356.5016470177724Q1104.270883970235 353.095808427433 1112.713929215194 353.095808427433L1112.713929215194 353.095808427433Q1121.3859383989993 353.095808427433 1126.8238319466002 356.2726830789261Q1132.2903459865568 359.47817822277494 1135.1810157144919 364.83021029330837Q1138.071685442427 370.18224236384174 1139.1020231672355 376.8794375750974Q1140.1323608920443 383.5766327863532 1140.1323608920443 390.388309967032L1140.1323608920443 390.388309967032L1139.9320174455536 408.30473818175875L1140.9623551703621 461.4816129788232ZM1105.3012216950435 462.9126375966129L1105.3012216950435 462.9126375966129Q1098.4895445143645 462.9126375966129 1093.566819829168 459.53541949862927Q1088.6154746516158 456.1295809082898 1085.9251483701712 450.26237997535213Q1083.2634425810825 444.36655855005864 1083.2634425810825 436.75350758341756L1083.2634425810825 436.75350758341756Q1083.2634425810825 430.7718246810567 1085.0951540918531 426.13530491941816Q1086.9554860949797 421.4987851577796 1090.1609812388285 417.8926031209496Q1093.3378558903216 414.28642108411964 1097.2588633430655 411.39575135618446Q1101.1798707958092 408.53370212060514 1105.3012216950435 406.0437192856511L1105.3012216950435 406.0437192856511Q1109.4225725942779 403.58235694305284 1113.3435800470213 401.4071995240125Q1117.2645874997652 399.260662597328 1120.3556006741908 396.88516173179715Q1123.4466138486166 394.5096608662663 1125.3928073288105 391.81933458482166Q1127.3390008090043 389.1576287957329 1127.3390008090043 385.86627217481663L1127.3390008090043 385.86627217481663L1134.7803288215107 387.2972967926063Q1134.7803288215107 393.88001003443884 1131.689315647085 398.43066831901Q1128.5983024726593 402.9527061112254 1123.9617827110208 406.24406273214163Q1119.3252629493822 409.5640398454137 1113.944610386493 412.85539646633L1113.944610386493 412.85539646633Q1109.4225725942779 415.7460661942651 1105.1867397256203 418.9229408457582Q1100.9795273493187 422.12843598960706 1098.4895445143645 426.24978688884136Q1096.0281821717663 430.3711377880756 1096.0281821717663 436.12385675159015L1096.0281821717663 436.12385675159015Q1096.0281821717663 440.6745150361613 1097.0585198965748 444.08035362650077Q1098.0888576213836 447.45757172448435 1100.5502199639818 449.31790372761094Q1103.0402027989358 451.1782357307375 1106.9612102516794 451.1782357307375L1106.9612102516794 451.1782357307375Q1113.543923493512 451.1782357307375 1118.1804432551505 446.7420594155895Q1122.816963016789 442.3058831004415 1125.3928073288105 434.29214524081937Q1127.968651640832 426.24978688884136 1127.968651640832 415.7460661942651L1127.968651640832 415.7460661942651L1134.5513648826643 402.75236266473485Q1134.5513648826643 418.0070850903728 1133.234822234298 429.2263180938439Q1131.8896590935756 440.47417158967073 1128.5983024726593 447.9727405868886Q1125.2783253593873 455.49993007646236 1119.6114678729402 459.22059408271554Q1113.944610386493 462.9126375966129 1105.3012216950435 462.9126375966129ZM1158.0487891067708 367.0912291894161L1158.0487891067708 367.0912291894161L1159.0791268315795 355.55717077003123Q1159.0791268315795 355.55717077003123 1161.9697965595146 355.67165273945443Q1164.8604662874498 355.7575142165218 1169.4969860490885 355.7575142165218Q1174.133505810727 355.7575142165218 1179.4855378812604 355.87199618594497Q1184.8375699517937 355.98647815536816 1189.788915129346 355.98647815536816L1189.788915129346 355.98647815536816Q1194.7402603068983 355.98647815536816 1199.3767800685368 355.87199618594497Q1204.0132998301754 355.7575142165218 1207.7053433440728 355.7575142165218Q1211.426007350326 355.7575142165218 1213.6011647693663 355.67165273945443Q1215.7477016960509 355.55717077003123 1215.7477016960509 355.55717077003123L1215.7477016960509 355.55717077003123L1214.9177074177328 366.2898554034538Q1214.9177074177328 366.2898554034538 1212.8570319681155 366.2898554034538Q1210.7963565184984 366.2898554034538 1207.1901744816685 366.2898554034538Q1203.5839924448385 366.2898554034538 1198.9474726832 366.3757168805212Q1194.3109529215615 366.4901988499444 1189.388228236365 366.4901988499444L1189.388228236365 366.4901988499444Q1184.4368830588126 366.4901988499444 1178.970369018856 366.57606032701176Q1173.5038549788994 366.69054229643496 1168.7814737401936 366.8050242658581Q1164.0304720091317 366.8908857429255 1161.0539408041293 367.0053677123487Q1158.0487891067708 367.0912291894161 1158.0487891067708 367.0912291894161ZM1204.4139867231565 313.94297488470744L1204.4139867231565 313.94297488470744Q1212.656688521625 313.94297488470744 1218.4380279774953 317.3488134750468Q1224.19074694101 320.72603157303047 1227.081416668945 326.3070275824102Q1229.9720863968803 331.8594030994342 1229.3424355650527 338.24177289477615L1229.3424355650527 338.24177289477615L1215.7477016960509 337.6407425553045Q1215.5473582495601 330.42837848164453 1211.9411762127302 327.3373653072188Q1208.3349941759002 324.2463521327931 1203.3836489983478 324.2463521327931L1203.3836489983478 324.2463521327931Q1198.0316169278144 324.2463521327931 1195.055085722812 327.53770875370935Q1192.0499340254537 330.8290653746256 1190.8192528541547 336.41006138400536Q1189.5885716828554 341.9624369010293 1189.1592642975186 348.5451501428618L1189.1592642975186 348.5451501428618Q1188.558233958047 362.1685045042195 1188.4437519886237 371.44154402749666Q1188.3578905115562 380.7145835507738 1188.3578905115562 388.4421164868381Q1188.3578905115562 396.1696494229023 1188.3578905115562 405.44268894617943L1188.3578905115562 405.44268894617943Q1188.3578905115562 420.26810398648047 1188.7585774045376 433.03284357716444Q1189.1592642975186 445.82620366020416 1189.4740897134322 453.6395980733358Q1189.788915129346 461.4816129788232 1189.788915129346 461.4816129788232L1189.788915129346 461.4816129788232L1173.5038549788994 462.11126381065066Q1173.5038549788994 462.11126381065066 1173.9331623642363 454.26924890516324Q1174.3338492572175 446.4272339996758 1174.8490181196219 433.5480124395687Q1175.364186982026 420.6687908794616 1175.364186982026 405.8433758391605L1175.364186982026 405.8433758391605Q1175.364186982026 396.3699928693929 1175.364186982026 389.75865913520454Q1175.364186982026 383.17594589337205 1175.364186982026 377.7094318534155Q1175.364186982026 372.24291781345886 1175.364186982026 366.2898554034538Q1175.364186982026 360.308172501093 1175.364186982026 351.86512725613386L1175.364186982026 351.86512725613386Q1175.364186982026 343.19311807232845 1177.2245189851526 336.18109744515897Q1179.0848509882792 329.1976973103454 1182.7768945021767 324.2463521327931Q1186.4975585084296 319.2950069552408 1191.9640725483862 316.6046806737962Q1197.401966095987 313.94297488470744 1204.4139867231565 313.94297488470744ZM1223.1604092162013 367.0912291894161L1223.1604092162013 367.0912291894161L1224.19074694101 355.55717077003123Q1224.19074694101 355.55717077003123 1227.081416668945 355.67165273945443Q1229.9720863968803 355.7575142165218 1234.6086061585186 355.7575142165218Q1239.2451259201573 355.7575142165218 1244.5971579906907 355.87199618594497Q1249.949190061224 355.98647815536816 1254.9005352387765 355.98647815536816L1254.9005352387765 355.98647815536816Q1259.8518804163289 355.98647815536816 1264.4884001779672 355.87199618594497Q1269.124919939606 355.7575142165218 1272.845583945859 355.7575142165218Q1276.5376274597563 355.7575142165218 1278.7127848787966 355.67165273945443Q1280.859321805481 355.55717077003123 1280.859321805481 355.55717077003123L1280.859321805481 355.55717077003123L1280.057948019519 366.2898554034538Q1280.057948019519 366.2898554034538 1277.997272569902 366.2898554034538Q1275.9365971202847 366.2898554034538 1272.3304150834547 366.2898554034538Q1268.7242330466247 366.2898554034538 1264.0877132849862 366.3757168805212Q1259.4511935233477 366.4901988499444 1254.4998483457955 366.4901988499444L1254.4998483457955 366.4901988499444Q1249.548503168243 366.4901988499444 1244.0819891282865 366.57606032701176Q1238.61547508833 366.69054229643496 1233.893093849624 366.8050242658581Q1229.1420921185622 366.8908857429255 1226.1655609135596 367.0053677123487Q1223.1604092162013 367.0912291894161 1223.1604092162013 367.0912291894161ZM1269.5256068325868 313.94297488470744L1269.5256068325868 313.94297488470744Q1277.7683086310556 313.94297488470744 1283.5496480869258 317.3488134750468Q1289.330987542796 320.72603157303047 1292.1930367783755 326.3070275824102Q1295.0837065063106 331.8594030994342 1294.482676166839 338.24177289477615L1294.482676166839 338.24177289477615L1280.859321805481 337.6407425553045Q1280.6589783589905 330.42837848164453 1277.0527963221607 327.3373653072188Q1273.4466142853307 324.2463521327931 1268.4952691077783 324.2463521327931L1268.4952691077783 324.2463521327931Q1263.143237037245 324.2463521327931 1260.1667058322425 327.53770875370935Q1257.161554134884 330.8290653746256 1255.9308729635852 336.41006138400536Q1254.700191792286 341.9624369010293 1254.2995048993048 348.5451501428618L1254.2995048993048 348.5451501428618Q1253.6698540674772 362.1685045042195 1253.555372098054 371.44154402749666Q1253.4695106209867 380.7145835507738 1253.4695106209867 388.4421164868381Q1253.4695106209867 396.1696494229023 1253.4695106209867 405.44268894617943L1253.4695106209867 405.44268894617943Q1253.4695106209867 420.26810398648047 1253.8701975139677 433.03284357716444Q1254.2995048993048 445.82620366020416 1254.5857098228628 453.6395980733358Q1254.9005352387765 461.4816129788232 1254.9005352387765 461.4816129788232L1254.9005352387765 461.4816129788232L1238.61547508833 462.11126381065066Q1238.61547508833 462.11126381065066 1239.0447824736668 454.26924890516324Q1239.4454693666478 446.4272339996758 1239.9606382290522 433.5480124395687Q1240.4758070914565 420.6687908794616 1240.4758070914565 405.8433758391605L1240.4758070914565 405.8433758391605Q1240.4758070914565 396.3699928693929 1240.4758070914565 389.75865913520454Q1240.4758070914565 383.17594589337205 1240.4758070914565 377.7094318534155Q1240.4758070914565 372.24291781345886 1240.4758070914565 366.2898554034538Q1240.4758070914565 360.308172501093 1240.4758070914565 351.86512725613386L1240.4758070914565 351.86512725613386Q1240.4758070914565 343.19311807232845 1242.3361390945831 336.18109744515897Q1244.1964710977097 329.1976973103454 1247.888514611607 324.2463521327931Q1251.6091786178602 319.2950069552408 1257.0756926578167 316.6046806737962Q1262.5422066977733 313.94297488470744 1269.5256068325868 313.94297488470744ZM1314.4597798311827 459.42093752920607L1299.0047139590542 461.0809260858421Q1299.205057405545 456.3299243547804 1299.3195393749681 448.2875660028024Q1299.4054008520354 440.2452076508244 1299.5198828214586 430.25665581865246Q1299.6343647908818 420.26810398648047 1299.6343647908818 409.33507590656734Q1299.6343647908818 398.43066831901 1299.6343647908818 387.92694762443375L1299.6343647908818 387.92694762443375Q1299.6343647908818 379.8845892724558 1299.6343647908818 370.4112063026881Q1299.6343647908818 360.90920284056466 1299.5198828214586 351.3499583937296Q1299.4054008520354 341.76209345453873 1299.3195393749681 333.0900842707333Q1299.205057405545 324.44669557928364 1299.205057405545 317.8639823374511L1299.205057405545 317.8639823374511L1314.4597798311827 317.6350183986048Q1314.2594363846922 324.0460086863025 1313.8301289993553 332.574915408329Q1313.4294421063744 341.13244262271127 1313.1146166904605 350.8347895313253Q1312.7997912745468 360.50851594758353 1312.599447828056 369.9818989173512Q1312.3991043815656 379.4552818871189 1312.3991043815656 387.6979836855874L1312.3991043815656 387.6979836855874Q1312.3991043815656 398.63101176550055 1312.7139297974795 411.9109202185888Q1313.028755213393 425.21944916403277 1313.5439240757976 437.78384530822615Q1314.0590929382017 450.34824145241953 1314.4597798311827 459.42093752920607L1314.4597798311827 459.42093752920607ZM1372.1586924204628 463.94297532142144L1372.1586924204628 463.94297532142144Q1360.6246340010778 463.94297532142144 1354.2422642057356 457.8754309419932Q1347.831273918038 451.807886562565 1344.7402607436122 441.7048527609699L1344.7402607436122 441.7048527609699Q1342.4792418475047 434.063181301973 1341.7637295386098 424.90462374811904Q1341.048217229715 415.7460661942651 1341.048217229715 405.8433758391605L1341.048217229715 405.8433758391605Q1341.048217229715 397.600674040692 1341.8782115080332 390.07348455111827Q1342.6795852939952 382.5462950615446 1344.7402607436122 376.1639252662026L1344.7402607436122 376.1639252662026Q1348.260581303375 365.86054801811696 1355.2726019305444 359.59266019219814Q1362.256002065358 353.2961518739236 1374.4197113165703 353.2961518739236L1374.4197113165703 353.2961518739236Q1384.1220582251842 353.2961518739236 1389.6744337422085 357.81818966613895Q1395.2268092592324 362.3688479507101 1397.7167920941863 370.0963808867744Q1400.1781544367843 377.8239138228386 1400.1781544367843 387.2972967926063L1400.1781544367843 387.2972967926063Q1400.1781544367843 393.0786362484766 1399.4626421278897 399.0316986584817Q1398.7471298189946 405.0133815608425 1397.7167920941863 411.1954079096939L1397.7167920941863 411.1954079096939L1385.7534262894646 400.6916872151177Q1386.383077121292 396.1696494229023 1386.7837640142732 391.93381655424486Q1387.21307139961 387.6979836855874 1387.21307139961 384.00594017169004L1387.21307139961 384.00594017169004Q1387.21307139961 378.22460071581975 1385.9537697359553 373.9029063700949Q1384.723088564656 369.5812120243701 1381.7465573596535 367.0912291894161Q1378.7414056622952 364.6298668468178 1373.189030145271 364.6298668468178L1373.189030145271 364.6298668468178Q1367.2073472429104 364.6298668468178 1363.5153037290129 368.7512177460521Q1359.7946397227597 372.8725686452863 1357.7339642731426 379.05459499413774L1357.7339642731426 379.05459499413774Q1355.8736322700163 384.83593445000804 1355.2726019305444 392.04829852366805Q1354.642951098717 399.260662597328 1354.642951098717 406.0437192856511L1354.642951098717 406.0437192856511Q1354.642951098717 411.1954079096939 1354.7574330681402 416.34709653373676Q1354.8432945452075 421.4987851577796 1355.2726019305444 426.13530491941816Q1355.6732888235254 430.7718246810567 1356.5032831018436 434.89317558029103L1356.5032831018436 434.89317558029103Q1358.1346511661238 442.73519048577845 1361.9697971418002 447.57205369390755Q1365.7763226251207 452.40891690203665 1372.9886866987806 452.40891690203665L1372.9886866987806 452.40891690203665Q1378.5410622158045 452.40891690203665 1381.946900806144 449.8330725900152Q1385.3527393964835 447.2572282779938 1386.7837640142732 443.0500159016921Q1388.2434091244188 438.8141830330347 1388.2434091244188 434.063181301973L1388.2434091244188 434.063181301973Q1388.2434091244188 432.4318132376928 1388.1289271549956 430.68596320398933Q1388.0144451855722 428.91149267793014 1387.6137582925912 427.2801246136499L1387.6137582925912 427.2801246136499L1399.7774675438034 427.2801246136499Q1400.1781544367843 429.340800063267 1400.2926364062077 431.48733698995153Q1400.378497883275 433.6624944089919 1400.378497883275 435.723169858609L1400.378497883275 435.723169858609Q1400.378497883275 443.765528210587 1397.2874847088494 450.147898005929Q1394.1964715344236 456.53026780127095 1387.928583708505 460.25093180752407Q1381.6320753902303 463.94297532142144 1372.1586924204628 463.94297532142144ZM1346.6005927467388 412.6550530198394L1346.6005927467388 412.6550530198394L1346.4002493002483 400.49134376862713L1397.7167920941863 400.06203638329026L1397.7167920941863 411.1954079096939Q1397.7167920941863 411.1954079096939 1394.5112969503373 411.1954079096939Q1391.3344222988444 411.1954079096939 1386.068251705378 411.39575135618446Q1380.8020811119125 411.62471529503085 1374.1048859006564 411.7105767720982Q1367.4076906894009 411.8250587415214 1360.309808585164 412.0254021880119Q1353.2119264809273 412.2257456345025 1346.6005927467388 412.6550530198394Z " fill="#4831d4" transform="matrix(0.6248310418621688,0,0,0.6248310418621689,0,56.976351479668196)"/></g></svg>