<svg xmlns="http://www.w3.org/2000/svg" version="1.1" xmlns:xlink="http://www.w3.org/1999/xlink" xmlns:svgjs="http://svgjs.dev/svgjs" width="100%" height="100%" viewBox="0 0 1000 600"><rect width="1000" height="600" x="0" y="0" fill="#262223"/><g><rect width="333.3333333333333" height="333.3333333333333" rx="13.333333333333334" ry="13.333333333333334" y="252.30902456436306" fill="#ddc6b6" transform="matrix(0.543273301220906,0,0,0.5432733012209059,0,72.38170835239657)" x="230.0867767333984"/><path d="M413.9434174391597 396.39248863527257L413.9434174391597 478.3160234510733Q413.9434174391597 480.7229172922339 413.37883740234423 483.4269585211921Q412.78454262674904 486.13099975015035 411.0610877775229 488.47846411375144Q409.3376329282967 490.8556432161323 406.21758535642186 492.4008096326799Q403.0678230457672 493.9756907880072 398.07574693076737 493.9756907880072L398.07574693076737 493.9756907880072L352.10704603847734 493.9756907880072Q347.2041141398168 493.9756907880072 344.1137813067217 493.02481914705487Q341.02344847362656 492.1036622448823 339.2405641468409 490.32077791809667Q337.487394558835 488.537893591311 336.86338504446 485.8338523623528Q336.2096607913053 483.10009639461475 336.2096607913053 479.44518352470413L336.2096607913053 479.44518352470413L336.2096607913053 362.13139482220834Q336.2096607913053 356.1884470662561 337.5765387751743 352.5929636739051Q338.94341675904326 348.96776554277426 341.4394548165432 347.0363075220898Q343.9652076128229 345.10484950140534 347.44183205005487 344.54026946458987Q350.9481712260667 343.97568942777445 355.22709361035226 343.97568942777445L355.22709361035226 343.97568942777445L452.2754304650512 343.97568942777445Q457.29722131883074 343.97568942777445 457.29722131883074 349.1757687142326L457.29722131883074 349.1757687142326L457.29722131883074 358.80334407887506Q457.29722131883074 360.88337579345836 456.0492022900808 361.5073853078334Q454.8011832613309 362.13139482220834 453.0182989345452 362.13139482220834L453.0182989345452 362.13139482220834Q451.9782830772536 362.13139482220834 449.7793924075513 361.8342474344107Q447.580501737849 361.5073853078334 444.6684573374324 361.03194948735717Q441.7266981982361 360.58622840566073 438.33921797734337 359.9027894137263Q434.9517377564506 359.2193504217918 431.50482805799834 358.59534090741676L431.50482805799834 358.59534090741676Q423.45213384868316 357.02045975208944 413.9434174391597 354.9404280375062L413.9434174391597 354.9404280375062L413.9434174391597 381.47568976783265L452.8102957630869 381.47568976783265Q455.0091864327892 381.47568976783265 455.0091864327892 383.64486569875515L455.0091864327892 383.64486569875515L455.0091864327892 394.10445374923097Q455.0091864327892 396.39248863527257 452.8102957630869 396.39248863527257L452.8102957630869 396.39248863527257L413.9434174391597 396.39248863527257ZM405.0587105440112 478.52402662253155L405.0587105440112 353.3655468821789L396.9168721183567 351.70152151051224L396.9168721183567 485.20984284797777Q399.4129101758566 485.20984284797777 400.987791331184 485.0315544152992Q402.5626724865113 484.8829807214004 403.5135441274636 484.1995417294659Q404.43470102963624 483.51610273753136 404.7615631562136 482.20865423122194Q405.0587105440112 480.93092046369225 405.0587105440112 478.52402662253155L405.0587105440112 478.52402662253155Z " fill="#262223" transform="matrix(0.543273301220906,0,0,0.5432733012209059,0,72.38170835239657)"/><path d="M646.7534382657576 478.5600746150999L646.7534382657576 376.11674836559433Q646.7534382657576 373.01851155008194 647.307594444142 370.70113116774735Q647.8365617053271 368.40893970261214 649.3227078200852 366.84722683625625Q650.8340428520424 365.31070288709964 653.504068075167 364.50465753672245Q656.1489043810922 363.72380110354453 660.4058313877719 363.72380110354453L660.4058313877719 363.72380110354453L699.902053556256 363.72380110354453Q709.5494088435834 363.72380110354453 718.4914744493308 366.01599256867974Q727.4335400550782 368.308184033815 734.3353033676832 373.4467231424698Q741.2622555974874 378.5852622511246 745.4184269353699 386.77166034089333Q749.5745982732525 394.9832473478613 749.5745982732525 406.74647167992896L749.5745982732525 406.74647167992896Q749.5745982732525 423.2200235282635 744.3101145786012 433.4971017455731Q739.04563088395 443.7741799628827 729.6501647686156 448.0059180523632L729.6501647686156 448.0059180523632Q736.1992832404304 450.1469760143027 739.473842476338 454.7061700273739Q742.7484017122455 459.2653640404451 742.7484017122455 465.638160091865L742.7484017122455 465.638160091865Q742.7484017122455 473.8749360160323 738.9952530495515 478.83715270429207Q735.2421043868575 483.79936939255185 729.1967642590283 486.4945835328757Q723.1766130483984 489.18979767319956 715.6955046402098 490.0462208579754Q708.2143962320212 490.8774551255519 700.7836656582311 490.8774551255519L700.7836656582311 490.8774551255519L660.4058313877719 490.8774551255519Q656.1489043810922 490.8774551255519 653.504068075167 490.07140977517463Q650.8340428520424 489.2905533419967 649.3227078200852 487.7792183100394Q647.8365617053271 486.26788327808214 647.307594444142 483.97569181294693Q646.7534382657576 481.65831143061234 646.7534382657576 478.5600746150999L646.7534382657576 478.5600746150999ZM737.0808953424056 408.1570510430891L737.0808953424056 408.1570510430891Q737.0808953424056 401.7842549916692 735.6703159792454 396.44420454542Q734.2597366160852 391.0789651819716 731.3378222209678 386.9983605956869Q728.4159078258504 382.9177560094022 723.8063359783806 380.27291970347693Q719.1967641309108 377.6280833975517 712.8239680794909 376.6457156267794L712.8239680794909 376.6457156267794L712.8239680794909 442.51473410291834Q719.1967641309108 441.6331220009432 723.8063359783806 438.5852630198293Q728.4159078258504 435.53740403871547 731.3378222209678 430.9278321912457Q734.2597366160852 426.318260343776 735.6703159792454 420.4744315535411Q737.0808953424056 414.6306027633062 737.0808953424056 408.1570510430891ZM712.8239680794909 454.1268249317902L712.8239680794909 478.5600746150999Q722.0431117744305 478.20742977430984 726.0985274435158 474.85730378680455Q730.1791320298006 471.4819888820999 730.1791320298006 466.79685028303226L730.1791320298006 466.79685028303226Q730.1791320298006 464.5802255694949 729.2471420934269 462.36360085595754Q728.3151521570531 460.14697614242016 726.2496609467115 458.4341297728686Q724.1589808191706 456.69609448611766 720.8340437488646 455.5374042949504Q717.5091066785585 454.4039030209824 712.8239680794909 454.1268249317902L712.8239680794909 454.1268249317902ZM705.2924818369037 479.0134751246871L705.2924818369037 375.31070301521714Q703.9826581425408 375.1343805948221 702.2950006901884 375.05881384322424Q700.6073432378361 374.9580581744271 698.3907185242987 374.9580581744271L698.3907185242987 374.9580581744271L698.3907185242987 479.1897975450821Q700.6073432378361 479.1897975450821 702.5468898621813 479.13941971068357Q704.5116254037258 479.08904187628497 705.2924818369037 479.0134751246871L705.2924818369037 479.0134751246871ZM763.2018024780676 478.5600746150999L763.2018024780676 412.51473371856594Q763.2018024780676 409.49206365465136 763.755958656452 407.14949435511755Q764.284925917637 404.80692505558375 765.771072032395 403.29559002362646Q767.2824070643522 401.7842549916692 769.9524322874769 401.0033985584912Q772.5972685934022 400.197353208114 776.8541956000819 400.197353208114L776.8541956000819 400.197353208114L815.6451280869859 400.197353208114Q819.7005437560712 400.197353208114 822.1942465588007 401.0033985584912Q824.662760444331 401.7842549916692 826.0985287246905 403.3963456924236Q827.5091080878504 404.98324747597877 827.987697514637 407.3761946099112Q828.4914758586227 409.76914174384353 828.4914758586227 412.94294531095386L828.4914758586227 412.94294531095386L828.4914758586227 419.4920637827688L848.1388312740677 400.373675628509Q850.0783778984129 398.50969575576164 851.7660353507653 398.50969575576164L851.7660353507653 398.50969575576164Q852.7484031215375 398.50969575576164 853.5040706375161 398.9127184309503Q854.2597381534948 399.3157411061389 854.7887054146798 399.84470836732396L854.7887054146798 399.84470836732396L858.7685543321674 404.0008797052065Q860.1035669437298 405.3358923167688 860.1035669437298 406.922794100324L860.1035669437298 406.922794100324Q860.1035669437298 407.9051618710962 859.5242218481461 408.91271855906774Q858.9448767525624 409.94546416423856 857.7106198097973 410.9026430178115L857.7106198097973 410.9026430178115L828.4914758586227 433.572668497171L828.4914758586227 478.3837521947049Q828.4914758586227 481.4819890102174 828.0380753490357 483.84974722695046Q827.5846748394484 486.19231652648426 826.0985287246905 487.7288404756408Q824.5871936927332 489.2905533419967 821.7408460492135 490.07140977517463Q818.9196873228933 490.8774551255519 814.0330373862313 490.8774551255519L814.0330373862313 490.8774551255519L776.8541956000819 490.8774551255519Q772.5972685934022 490.8774551255519 769.9524322874769 490.07140977517463Q767.2824070643522 489.2905533419967 765.771072032395 487.7792183100394Q764.284925917637 486.26788327808214 763.755958656452 483.97569181294693Q763.2018024780676 481.65831143061234 763.2018024780676 478.5600746150999L763.2018024780676 478.5600746150999ZM820.9599896160356 477.779218181922L820.9599896160356 413.2955901517439Q820.9599896160356 411.3560435273987 820.6829115268434 410.19735333623146Q820.4310223548506 409.0638520622635 819.6249770044734 408.4845069666798Q818.8189316540962 407.9051618710962 817.5091079597331 407.7792172850998Q816.1740953481709 407.628083781904 814.0330373862313 407.628083781904L814.0330373862313 407.628083781904L814.0330373862313 483.4467245517618Q816.1740953481709 483.4467245517618 817.5091079597331 483.2955910485661Q818.8189316540962 483.16964646256963 819.6249770044734 482.59030136698607Q820.4310223548506 482.0109562714024 820.6829115268434 480.9026439146337Q820.9599896160356 479.81952047506434 820.9599896160356 477.779218181922L820.9599896160356 477.779218181922ZM941.8416032554202 476.16712748116754L941.8416032554202 476.16712748116754Q944.2093614721533 476.16712748116754 946.1740970136979 475.512215633986Q948.1136436380431 474.85730378680455 949.6753565043988 474.0512584364273Q951.2118804535554 473.24521308605006 952.2446260587263 472.5903012388686Q953.2521827466977 471.93538939168707 953.781150007883 471.93538939168707L953.781150007883 471.93538939168707Q954.5871953582601 471.93538939168707 954.8894623646516 472.18727856367997Q955.1917293710429 472.46435665287214 955.6451298806302 473.1696463344522L955.6451298806302 473.1696463344522L958.7433666961427 477.955540602317Q959.1967672057298 478.6608302838971 959.1967672057298 479.1897975450821L959.1967672057298 479.1897975450821Q959.1967672057298 479.81952047506434 958.8441223649398 480.1721653158544Q958.4662886069506 480.52481015664443 958.1136437661604 480.7766993286373L958.1136437661604 480.7766993286373Q955.1917293710429 482.81700162177964 950.9599912815626 485.15957092131345Q946.7030642748829 487.50214022084725 941.0859357394417 489.46687576239174Q935.4436182868011 491.40642238673695 928.365532553801 492.6910571639006Q921.2874468208009 493.9756919410644 912.7735928074416 493.9756919410644L912.7735928074416 493.9756919410644Q906.1489075840287 493.9756919410644 899.4990334434166 492.91775741869424Q892.8491593028044 491.85982289632415 886.8038191749753 489.5424425139896Q880.7332901299468 487.25025104885435 875.4939953524948 483.5222913033597Q870.2798894922422 479.81952047506434 866.4259851607511 474.4039032772173Q862.57208082926 469.01347499656964 860.3554561157226 461.8850114291711Q858.1388314021852 454.75654786177245 858.1388314021852 445.5374041668329L858.1388314021852 445.5374041668329Q858.1388314021852 436.4945828922884 860.3554561157226 429.36611932488984Q862.57208082926 422.23765575749127 866.4259851607511 416.84722747684356Q870.2798894922422 411.4316102789966 875.4939953524948 407.6784616163026Q880.7332901299468 403.9253129536086 886.8038191749753 401.55755473687555Q892.8491593028044 399.21498543734174 899.4990334434166 398.1570509149716Q906.1489075840287 397.09911639260156 912.7735928074416 397.09911639260156L912.7735928074416 397.09911639260156Q923.8567163751283 397.09911639260156 933.3781270764592 399.5676302781318Q942.8995377777902 402.06133308086135 949.8768678419932 407.7288394507012Q956.8793868233953 413.39634582054106 960.8592357408828 422.59030059828126Q964.8642735755697 431.8094442932208 964.8642735755697 445.1847593260429L964.8642735755697 445.1847593260429L964.8642735755697 450.1469760143027Q964.8642735755697 451.7338777978579 964.0582282251925 452.61548989983294Q963.2521828748153 453.497102001808 961.3882030020678 453.497102001808L961.3882030020678 453.497102001808L924.7383284771034 453.497102001808Q925.4436181586835 460.0714093908223 927.2572201970323 464.45428098349845Q929.0708222353811 468.8371525761746 931.4133915349149 471.4316110477013Q933.7811497516481 474.0512584364273 936.5267417263705 475.1091929587974Q939.2723337010929 476.16712748116754 941.8416032554202 476.16712748116754ZM924.3856836363135 442.6154897717155L952.2698149759257 442.6154897717155Q952.2698149759257 435.53740403871547 951.161502619157 430.8774543568471Q950.0531902623883 426.2426935921781 948.2143993068402 423.4467237830571Q946.3504194340927 420.6507539739361 943.831527714164 419.4920637827688Q941.2874470770358 418.35856250880084 938.5418551023134 418.35856250880084L938.5418551023134 418.35856250880084Q936.5267417263705 418.35856250880084 934.133794592438 419.13941894197876Q931.7408474585055 419.945464292356 929.6501673309648 422.51473384668344Q927.5594872034238 425.0840034010108 926.098530005865 429.86989766887564Q924.6375728083063 434.6557919367404 924.3856836363135 442.6154897717155L924.3856836363135 442.6154897717155ZM935.9725855479861 481.1293441694273L935.9725855479861 481.1293441694273Q933.1514268216657 480.52481015664443 929.7761119169612 478.6104524494985Q926.4259859294558 476.69609474235256 923.5040715343383 472.71624582486504Q920.5821571392208 468.73639690737747 918.6174215976763 462.26284518716034Q916.6778749733311 455.8144823841426 916.6778749733311 446.066371428018L916.6778749733311 446.066371428018Q916.6778749733311 437.1243058222706 918.4159102600821 430.9278321912457Q920.1287566296338 424.73135856022077 922.8743486043562 420.75150964273325Q925.6199405790786 416.7464718080464 929.0708222353811 414.75654734930265Q932.5217038916836 412.76662289055884 935.9725855479861 412.23765562937376L935.9725855479861 412.23765562937376Q930.6829129361355 412.41397804976884 925.8466408338721 414.3283357569147Q921.0103687316088 416.21750454686133 917.3327868205128 420.29810913314606Q913.6803938266158 424.3787137194308 911.5393358646764 430.7515097708507Q909.4234668199362 437.1243058222706 909.4234668199362 446.066371428018L909.4234668199362 446.066371428018Q909.4234668199362 455.6381599637475 911.8919807054664 462.31322302155894Q914.3856835081959 469.01347499656964 918.239587839687 473.2200241688508Q922.0934921711781 477.4265733411319 926.7786307702457 479.26536429668Q931.4637693693134 481.1293441694273 935.9725855479861 481.1293441694273ZM1061.9927382960254 490.8774551255519L1014.7131407129613 490.8774551255519Q1009.9272464450966 490.8774551255519 1005.0909743428332 490.2477321955697Q1000.2798911577692 489.64319818278676 995.8970195650928 488.2578077368259Q991.5141479724167 486.8976062080643 987.7106214753243 484.680981494527Q983.8819060610325 482.4643567809896 981.1111251691108 479.1897975450821Q978.3151553599897 475.91523830917464 976.7282535764344 471.4819888820999Q975.1161628756801 467.04873945502516 975.1161628756801 461.3056663335874L975.1161628756801 461.3056663335874Q975.1161628756801 453.5978576706052 978.0380772707975 448.10667372116035Q980.959991665915 442.6154897717155 985.8970194369755 438.98828569501796Q990.8088582908366 435.36108161832044 997.1816543422566 433.39634607677596Q1003.5544503936766 431.45679945243074 1010.3806469546836 430.9278321912457L1010.3806469546836 430.9278321912457L1010.3806469546836 424.80692531181865Q1010.3806469546836 421.35604365551615 1009.4738459355093 419.31574136237384Q1008.5922338335341 417.30062798643075 1007.2320323047726 416.26788238125994Q1005.8466418588117 415.2603256932884 1004.209362240858 414.9328697696976Q1002.5720826229043 414.6306027633062 1001.060747590947 414.6306027633062L1001.060747590947 414.6306027633062Q999.2975233869969 414.6306027633062 997.307598928253 415.15957002449125Q995.3176744695094 415.68853728567626 993.4536945967619 416.4442048016549Q991.5897147240147 417.1998723176336 989.9020572716623 418.08148441960867Q988.2395887365093 418.9630965215838 987.0808985453419 419.66838620316383L987.0808985453419 419.66838620316383Q986.5519312841569 420.0210310439539 986.0985307745697 420.29810913314606Q985.670319182182 420.57518722233823 985.2169186725947 420.57518722233823L985.2169186725947 420.57518722233823Q984.4360622394166 420.57518722233823 983.7055836406374 419.41649703117093L983.7055836406374 419.41649703117093L980.7081024939222 414.6306027633062Q980.2547019843349 414.000879833324 980.2547019843349 413.2955901517439L980.2547019843349 413.2955901517439Q980.2547019843349 412.5903004701638 980.8340470799186 412.0613332089788Q981.4133921755023 411.5323659477937 981.9423594366873 411.1797211070037L981.9423594366873 411.1797211070037Q984.8642738318048 409.1394188138613 989.3730900104773 407.02354976912113Q993.9070951063492 404.8824918071816 999.5242236417904 403.2200232720286Q1005.1413521772316 401.5323658196763 1011.6904706490467 400.4744312973062Q1018.2395891208618 399.39130785773676 1025.242108102264 399.39130785773676L1025.242108102264 399.39130785773676Q1031.891982242876 399.39130785773676 1038.2144004598972 399.84470836732396Q1044.5620075941179 400.29810887691116 1050.179136129559 401.75906607446984Q1055.7962646650008 403.2200232720286 1060.4562143468688 405.91523741235244Q1065.0909751115378 408.6104515526763 1068.5166678506412 413.043700979751Q1071.917171672545 417.4769504068258 1073.7811515452922 423.9253132098436Q1075.64513141804 430.39886493006065 1075.64513141804 439.4164972874059L1075.64513141804 439.4164972874059L1075.64513141804 478.91271945588994Q1075.64513141804 481.8346338510074 1075.1161641568547 484.10163639894336Q1074.5620079784703 486.3686389468793 1073.0758618637124 487.8547850616373Q1071.5645268317548 489.3661200935946 1068.8945016086304 490.12178760957323Q1066.2496653027051 490.8774551255519 1061.9927382960254 490.8774551255519L1061.9927382960254 490.8774551255519ZM1010.3806469546836 479.54244238587216L1010.3806469546836 442.1620892621283Q1003.9826619860645 442.1620892621283 999.6501682277868 443.7741799628827Q995.3176744695094 445.3610817464379 992.6476492463847 448.0059180523632Q990.0028129404594 450.6759432754877 988.8441227492923 454.1772027661888Q987.7106214753243 457.67846225688993 987.7106214753243 461.3812330851853L987.7106214753243 461.3812330851853Q987.7106214753243 465.10919283067994 988.8441227492923 468.434129900986Q990.0028129404594 471.75906697129204 992.6476492463847 474.2275808568223Q995.3176744695094 476.69609474235256 999.6501682277868 478.13186302271197Q1003.9826619860645 479.54244238587216 1010.3806469546836 479.54244238587216L1010.3806469546836 479.54244238587216ZM1061.2118818628473 437.1243058222706L1061.2118818628473 483.4467245517618Q1063.3277509075879 483.4467245517618 1064.6627635191498 483.2955910485661Q1065.9725872135132 483.16964646256963 1066.7786325638904 482.59030136698607Q1067.5846779142676 482.0109562714024 1067.8365670862604 480.9026439146337Q1068.1136451754523 479.81952047506434 1068.1136451754523 477.779218181922L1068.1136451754523 477.779218181922L1068.1136451754523 437.4769506630607Q1068.1136451754523 430.2981092612635 1066.6023101434953 425.3862704074023Q1065.0909751115378 420.4744315535411 1062.8491614808013 417.32581690363Q1060.5821589328652 414.177202253719 1057.9121337097408 412.53992263576527Q1055.2672974038155 410.9026430178115 1052.9751059386804 410.1217865846336L1052.9751059386804 410.1217865846336Q1054.0330404610504 411.25528785860155 1055.4939976586093 413.39634582054106Q1056.9549548561677 415.5122148652813 1058.1892117989328 418.78677410118877Q1059.423468741698 422.06133333709624 1060.3050808436733 426.62052735016744Q1061.2118818628473 431.1797213632386 1061.2118818628473 437.1243058222706L1061.2118818628473 437.1243058222706ZM1091.9171719287801 478.5600746150999L1091.9171719287801 358.13186148530247Q1091.9171719287801 355.1343803385872 1092.4713281071645 352.7666221218541Q1093.0002953683493 350.4240528223203 1094.4864414831072 348.912717790363Q1095.9977765150647 347.426571675605 1098.6678017381892 346.62052632522773Q1101.3126380441145 345.81448097485054 1105.5695650507942 345.81448097485054L1105.5695650507942 345.81448097485054L1144.3604975376984 345.81448097485054Q1148.4159132067834 345.81448097485054 1150.9096160095132 346.62052632522773Q1153.3781298950435 347.426571675605 1154.8138981754028 348.912717790363Q1156.224477538563 350.4240528223203 1156.7030669653495 352.7666221218541Q1157.2068453093352 355.1343803385872 1157.2068453093352 358.13186148530247L1157.2068453093352 358.13186148530247L1157.2068453093352 422.06133333709624L1178.4411025083355 401.0033985584912Q1179.4234702791073 400.021030787719 1180.3050823810827 399.61800811253033Q1181.1866944830576 399.21498543734174 1181.891984164638 399.21498543734174L1181.891984164638 399.21498543734174Q1183.5040748653923 399.21498543734174 1184.6375761393601 400.549998048904L1184.6375761393601 400.549998048904L1189.070825566435 405.1595698963738Q1190.0531933372072 406.31826008754103 1190.0531933372072 407.3761946099112L1190.0531933372072 407.3761946099112Q1190.0531933372072 408.3333734634841 1189.3730925728264 409.31574123425634Q1188.7181807256447 410.2981090050286 1187.2068456936877 411.4316102789966L1187.2068456936877 411.4316102789966L1159.4990367744704 431.91019996201794Q1166.8542005966628 432.16208913401084 1171.8919840365202 433.7993687519646Q1176.929767476378 435.4366483699183 1180.0531932090898 438.53488518543077Q1183.1514300246022 441.6331220009432 1184.5116315533637 446.242693848413Q1185.8970219993248 450.85226569588275 1185.8970219993248 456.97317257530983L1185.8970219993248 456.97317257530983L1185.8970219993248 486.72128378766934Q1185.8970219993248 488.2326188196266 1185.493999324136 489.06385308720314Q1185.0909766489472 489.89508735477966 1184.5116315533637 490.29811002996826Q1183.9322864577803 490.70113270515685 1183.1514300246022 490.7766994567547Q1182.345384674225 490.8774551255519 1181.5393393238478 490.8774551255519L1181.5393393238478 490.8774551255519L1175.871832954008 490.8774551255519Q1173.5796414888728 490.8774551255519 1172.924729641691 489.5424425139896Q1172.2446288773103 488.2326188196266 1172.2446288773103 486.72128378766934L1172.2446288773103 486.72128378766934L1172.2446288773103 456.06637155613544Q1172.2446288773103 452.01095588705005 1171.4889613613318 449.29055282952686Q1170.7332938453533 446.59533868920306 1168.970069641403 444.9580590712493Q1167.2068454374526 443.3207794532956 1164.335308876734 442.56511193731694Q1161.4385833988158 441.80944442133824 1157.2068453093352 441.6331220009432L1157.2068453093352 441.6331220009432L1157.2068453093352 478.7363970354949Q1157.2068453093352 481.75906709940955 1156.6275002137518 484.0260696473455Q1156.0481551181679 486.26788327808214 1154.461253334613 487.829596144438Q1152.8491626338582 489.3661200935946 1150.0280039075383 490.12178760957323Q1147.1816562640183 490.8774551255519 1142.7484068369436 490.8774551255519L1142.7484068369436 490.8774551255519L1105.5695650507942 490.8774551255519Q1101.3126380441145 490.8774551255519 1098.6678017381892 490.07140977517463Q1095.9977765150647 489.2905533419967 1094.4864414831072 487.7792183100394Q1093.0002953683493 486.26788327808214 1092.4713281071645 483.97569181294693Q1091.9171719287801 481.65831143061234 1091.9171719287801 478.5600746150999L1091.9171719287801 478.5600746150999ZM1149.6753590667481 477.779218181922L1149.6753590667481 358.9379068356797Q1149.6753590667481 356.9731712941352 1149.3982809775557 355.83967002016726Q1149.1463918055629 354.680979829 1148.3403464551857 354.1016347334164Q1147.5343011048085 353.5222896378327 1146.2244774104456 353.3963450518363Q1144.8894647988832 353.2704004658399 1142.7484068369436 353.2704004658399L1142.7484068369436 353.2704004658399L1142.7484068369436 483.4467245517618Q1144.8894647988832 483.4467245517618 1146.2244774104456 483.2955910485661Q1147.5343011048085 483.16964646256963 1148.3403464551857 482.59030136698607Q1149.1463918055629 482.0109562714024 1149.3982809775557 480.9026439146337Q1149.6753590667481 479.81952047506434 1149.6753590667481 477.779218181922L1149.6753590667481 477.779218181922ZM1286.5771240448803 454.0260692629931L1268.8693152537803 454.0260692629931L1268.8693152537803 478.484507863502Q1268.8693152537803 481.65831143061234 1268.4159147441933 484.0260696473455Q1267.9877031518054 486.3686389468793 1266.5519348714456 487.8547850616373Q1265.1413555082859 489.3661200935946 1262.5217081195597 490.12178760957323Q1259.927249648033 490.8774551255519 1255.569566972556 490.8774551255519L1255.569566972556 490.8774551255519L1217.1564682436415 490.8774551255519Q1212.8995412369618 490.8774551255519 1210.229516013837 490.07140977517463Q1207.5846797079116 489.2905533419967 1206.0733446759546 487.7792183100394Q1204.562009643997 486.26788327808214 1204.0330423828123 483.97569181294693Q1203.504075121627 481.65831143061234 1203.504075121627 478.5600746150999L1203.504075121627 478.5600746150999L1203.504075121627 454.0260692629931L1196.148911299435 454.0260692629931Q1194.3101203438869 454.0260692629931 1194.3101203438869 452.0865226386479L1194.3101203438869 452.0865226386479L1194.3101203438869 445.0084369056479Q1194.3101203438869 443.14445703290056 1196.148911299435 443.14445703290056L1196.148911299435 443.14445703290056L1203.504075121627 443.14445703290056L1203.504075121627 389.6683858188115Q1203.504075121627 380.0965972830819 1205.493999580371 373.01851155008194Q1207.4839240391148 365.9152368998826 1210.9096167782177 360.8270756256263Q1214.310120600122 355.7389143513701 1218.9196924475914 352.46435511546264Q1223.5292642950612 349.18979587955516 1228.844125824111 347.2754381724093Q1234.1589873531611 345.3862693824626 1239.8516826402001 344.6809797008825Q1245.5695668444387 343.9756900193025 1251.2370732142786 343.9756900193025L1251.2370732142786 343.9756900193025Q1256.0985342337412 343.9756900193025 1261.4637735971896 344.5802240320854Q1266.829012960638 345.20994696206765 1271.8164185660971 346.21750365003913Q1276.8290130887553 347.25024925520995 1281.1615068470333 348.61045078397154Q1285.5191895225098 349.99584122993235 1288.5166706692253 351.40642059309255L1288.5166706692253 351.40642059309255Q1289.2219603508051 351.7590654338826 1290.0280057011828 352.46435511546264Q1290.83405105156 353.1696447970427 1290.83405105156 354.9580579181922L1290.83405105156 354.9580579181922L1290.83405105156 361.1545315492171Q1290.83405105156 362.28803282318506 1290.3806505419725 362.5147330779787Q1289.9272500323855 362.74143333277226 1289.5746051915953 362.74143333277226L1289.5746051915953 362.74143333277226Q1288.4411039176275 362.74143333277226 1287.106091306065 362.2124660715872Q1285.7710786945026 361.68349881040217 1283.1262423885778 361.68349881040217L1283.1262423885778 361.68349881040217Q1280.20432799346 361.68349881040217 1277.5846806047339 362.86737791876874Q1274.9650332160081 364.0764459443345 1273.0254865916631 367.0739270910499Q1271.0859399673177 370.09659715496446 1269.977627610549 375.23513626361927Q1268.8693152537803 380.3484864550748 1268.8693152537803 388.15705078685414L1268.8693152537803 388.15705078685414L1268.8693152537803 443.14445703290056L1286.5771240448803 443.14445703290056Q1288.4411039176275 443.14445703290056 1288.4411039176275 445.0084369056479L1288.4411039176275 445.0084369056479L1288.4411039176275 452.0865226386479Q1288.4411039176275 454.0260692629931 1286.5771240448803 454.0260692629931L1286.5771240448803 454.0260692629931ZM1254.4360656985882 384.60541346175455L1254.4360656985882 483.4467245517618Q1256.5519347433283 483.4467245517618 1257.8869473548907 483.2955910485661Q1259.2219599664531 483.16964646256963 1260.0028163996308 482.59030136698607Q1260.808861750008 482.0109562714024 1261.0607509220013 480.9026439146337Q1261.3378290111932 479.81952047506434 1261.3378290111932 477.779218181922L1261.3378290111932 477.779218181922L1261.3378290111932 384.60541346175455Q1261.3378290111932 376.82203804717443 1262.6728416227556 371.91019919331325Q1263.9826653171185 366.998360339452 1266.0229676102608 364.026068109936Q1268.0632699034031 361.05377588041995 1270.6325394577307 359.5928186828612Q1273.2018090120582 358.13186148530247 1275.5947561459902 357.2502493833274L1275.5947561459902 357.2502493833274Q1272.3957636616806 357.14949371453025 1268.6929928333852 358.5348841604911Q1264.9650330878908 359.8950856892527 1261.7660406035811 363.0940781735623Q1258.5922370364706 366.2930706578719 1256.50155690893 371.5575543525232Q1254.4360656985882 376.82203804717443 1254.4360656985882 384.60541346175455L1254.4360656985882 384.60541346175455ZM1383.277377172948 490.8774551255519L1335.997779589884 490.8774551255519Q1331.211885322019 490.8774551255519 1326.3756132197555 490.2477321955697Q1321.5645300346914 489.64319818278676 1317.1564695248162 488.2578077368259Q1312.77359793214 486.8976062080643 1308.9700714350474 484.680981494527Q1305.1665449379548 482.4643567809896 1302.370575128834 479.1897975450821Q1299.5997942369122 475.91523830917464 1297.9877035361578 471.4819888820999Q1296.4008017526025 467.04873945502516 1296.4008017526025 461.3056663335874L1296.4008017526025 461.3056663335874Q1296.4008017526025 453.5978576706052 1299.3227161477198 448.10667372116035Q1302.2446305428375 442.6154897717155 1307.1564693966989 438.98828569501796Q1312.0683082505598 435.36108161832044 1318.4411043019795 433.39634607677596Q1324.8390892705988 431.45679945243074 1331.640096914407 430.9278321912457L1331.640096914407 430.9278321912457L1331.640096914407 424.80692531181865Q1331.640096914407 421.35604365551615 1330.7584848124316 419.31574136237384Q1329.8768727104566 417.30062798643075 1328.491482264496 416.26788238125994Q1327.131280735734 415.2603256932884 1325.4940011177805 414.9328697696976Q1323.856721499827 414.6306027633062 1322.3453864678695 414.6306027633062L1322.3453864678695 414.6306027633062Q1320.5821622639191 414.6306027633062 1318.5922378051755 415.15957002449125Q1316.6023133464319 415.68853728567626 1314.7383334736846 416.4442048016549Q1312.874353600937 417.1998723176336 1311.1866961485848 418.08148441960867Q1309.4990386962322 418.9630965215838 1308.3655374222644 419.66838620316383L1308.3655374222644 419.66838620316383Q1307.8365701610796 420.0210310439539 1307.3831696514922 420.29810913314606Q1306.9297691419051 420.57518722233823 1306.5015575495172 420.57518722233823L1306.5015575495172 420.57518722233823Q1305.69551219914 420.57518722233823 1304.9902225175597 419.41649703117093L1304.9902225175597 419.41649703117093L1301.9927413708447 414.6306027633062Q1301.5393408612572 414.000879833324 1301.5393408612572 413.2955901517439L1301.5393408612572 413.2955901517439Q1301.5393408612572 412.5903004701638 1302.118685956841 412.0613332089788Q1302.6980310524245 411.5323659477937 1303.2269983136098 411.1797211070037L1303.2269983136098 411.1797211070037Q1306.148912708727 409.1394188138613 1310.6577288873996 407.02354976912113Q1315.166545066072 404.8824918071816 1320.8088625187129 403.2200232720286Q1326.425991054154 401.5323658196763 1332.9751095259694 400.4744312973062Q1339.5242279977838 399.39130785773676 1346.526746979186 399.39130785773676L1346.526746979186 399.39130785773676Q1353.1766211197983 399.39130785773676 1359.4990393368198 399.84470836732396Q1365.821457553841 400.29810887691116 1371.4637750064817 401.75906607446984Q1377.080903541923 403.2200232720286 1381.7156643065919 405.91523741235244Q1386.3756139884604 408.6104515526763 1389.7761178103642 413.043700979751Q1393.2018105494676 417.4769504068258 1395.0406015050157 423.9253132098436Q1396.904581377763 430.39886493006065 1396.904581377763 439.4164972874059L1396.904581377763 439.4164972874059L1396.904581377763 478.91271945588994Q1396.904581377763 481.8346338510074 1396.3756141165777 484.10163639894336Q1395.846646855393 486.3686389468793 1394.3353118234354 487.8547850616373Q1392.8491657086774 489.3661200935946 1390.179140485553 490.12178760957323Q1387.5343041796277 490.8774551255519 1383.277377172948 490.8774551255519L1383.277377172948 490.8774551255519ZM1331.640096914407 479.54244238587216L1331.640096914407 442.1620892621283Q1325.2673008629872 442.1620892621283 1320.9348071047093 443.7741799628827Q1316.6023133464319 445.3610817464379 1313.932288123307 448.0059180523632Q1311.2874518173821 450.6759432754877 1310.1287616262143 454.1772027661888Q1308.9700714350474 457.67846225688993 1308.9700714350474 461.3812330851853L1308.9700714350474 461.3812330851853Q1308.9700714350474 465.10919283067994 1310.1287616262143 468.434129900986Q1311.2874518173821 471.75906697129204 1313.932288123307 474.2275808568223Q1316.6023133464319 476.69609474235256 1320.9348071047093 478.13186302271197Q1325.2673008629872 479.54244238587216 1331.640096914407 479.54244238587216L1331.640096914407 479.54244238587216ZM1382.4713318225708 437.1243058222706L1382.4713318225708 483.4467245517618Q1384.61238978451 483.4467245517618 1385.9222134788733 483.2955910485661Q1387.2572260904353 483.16964646256963 1388.0632714408125 482.59030136698607Q1388.8441278739906 482.0109562714024 1389.1212059631825 480.9026439146337Q1389.3730951351758 479.81952047506434 1389.3730951351758 477.779218181922L1389.3730951351758 477.779218181922L1389.3730951351758 437.4769506630607Q1389.3730951351758 430.2981092612635 1387.8869490204174 425.3862704074023Q1386.3756139884604 420.4744315535411 1384.1086114405243 417.32581690363Q1381.8667978097878 414.177202253719 1379.196772586663 412.53992263576527Q1376.5519362807377 410.9026430178115 1374.2345558984034 410.1217865846336L1374.2345558984034 410.1217865846336Q1375.2924904207734 411.25528785860155 1376.7534476183323 413.39634582054106Q1378.2395937330903 415.5122148652813 1379.4738506758554 418.78677410118877Q1380.7081076186205 422.06133333709624 1381.5897197205954 426.62052735016744Q1382.4713318225708 431.1797213632386 1382.4713318225708 437.1243058222706L1382.4713318225708 437.1243058222706ZM1476.3504262243182 397.09911639260156L1476.3504262243182 397.09911639260156Q1482.017932594158 397.09911639260156 1487.685438963998 397.754028239783Q1493.3529453338379 398.43412900416376 1498.4411066080943 399.4920635265339Q1503.5292678823503 400.549998048904 1507.7358170546313 401.8346328260677Q1511.9423662269123 403.11926760323144 1514.6123914500372 404.35352454599655L1514.6123914500372 404.35352454599655Q1515.0406030424251 404.5298469663916 1515.5191924692117 404.8824918071816Q1516.0229708131974 405.2351366479717 1516.0229708131974 406.2175044187439L1516.0229708131974 406.2175044187439Q1516.0229708131974 406.49458250793606 1515.9222151444 406.922794100324Q1515.8466483928023 407.3761946099112 1515.7458927240054 407.80440620229905L1515.7458927240054 407.80440620229905L1514.687958201635 413.043700979751Q1514.5116357812399 414.1016355021211 1514.2093687748484 414.3283357569147Q1513.8819128512578 414.5550360117083 1513.630023679265 414.5550360117083L1513.630023679265 414.5550360117083Q1513.176623169678 414.5550360117083 1511.9423662269123 414.2779579225162Q1510.7081092841477 414.000879833324 1509.2975299209875 414.000879833324L1509.2975299209875 414.000879833324Q1504.2345575639301 414.000879833324 1501.3126431688129 416.7212828908471Q1498.3907287736956 419.41649703117093 1497.6098723405175 426.14193792338097L1497.6098723405175 426.14193792338097L1492.6476556522575 467.50213996461235Q1491.9423659706777 472.9933239140572 1488.9700737411617 477.779218181922Q1485.9977815116458 482.56511244978674 1480.4310308106028 486.19231652648426Q1474.8390911923611 489.8195206031818 1466.6526931025924 491.8850118135234Q1458.4662950128236 493.9756919410644 1447.483927113934 493.9756919410644L1447.483927113934 493.9756919410644Q1440.582163801329 493.9756919410644 1434.0078564123146 493.14445767348786Q1427.4587379404998 492.288034488712 1421.9171761566563 491.10415538034545Q1416.400803290012 489.89508735477966 1412.2698208693287 488.7112082464131Q1408.1640273658445 487.50214022084725 1406.1237250727022 486.7968505392672L1406.1237250727022 486.7968505392672Q1405.4184353911223 486.62052811887213 1405.0154127159335 486.31826111248074Q1404.6123900407451 486.01599410608924 1404.6123900407451 485.31070442450914L1404.6123900407451 485.31070442450914Q1404.6123900407451 484.9328706665199 1404.7131457095425 484.50465907413195Q1404.7887124611402 484.05125856454475 1404.9650348815353 483.4467245517618L1404.9650348815353 483.4467245517618L1406.0229694039053 478.484507863502Q1406.1992918243004 477.779218181922 1406.6526923338874 477.3258176723348Q1407.1060928434745 476.89760607994685 1408.2395941174427 476.89760607994685L1408.2395941174427 476.89760607994685Q1411.16150851256 476.89760607994685 1414.133800742076 476.57015015635614Q1417.1060929715923 476.26788314996463 1419.6249846915211 474.9328705384024Q1422.14387641145 473.5978579268401 1424.0582341185955 470.8522659521177Q1425.9474029085422 468.10667397739525 1426.6778815073217 463.16964620633473L1426.6778815073217 463.16964620633473L1432.8743551383463 420.4744315535411Q1433.8315339919195 413.7489906613311 1437.8365718266064 409.2401744826585Q1441.816420744094 404.7061693867866 1447.7106273687273 402.01095524646274Q1453.5796450761613 399.3157411061389 1461.0355645671507 398.2074287493702Q1468.466295140941 397.09911639260156 1476.3504262243182 397.09911639260156ZM1459.5242295351936 485.73891601689706L1459.5242295351936 485.73891601689706Q1471.7408543768483 484.3283366537369 1478.06327259387 478.8875305386906Q1484.41087972809 473.4215355064451 1485.3680585816637 465.28551525107497L1485.3680585816637 465.28551525107497L1490.0783860979304 426.14193792338097Q1490.859242531108 419.41649703117093 1494.007857181019 414.9832476040962Q1497.15647183093 410.5499981770215 1502.6476557803753 409.5928193234485L1502.6476557803753 409.5928193234485Q1497.6854390921153 409.5928193234485 1494.1841796014146 410.9026430178115Q1490.682920110713 412.23765562937376 1488.289972976781 414.50465817730975Q1485.9222147600476 416.7464718080464 1484.6375799828843 419.769141871961Q1483.3529452057205 422.7666230186763 1482.9751114477308 426.14193792338097L1482.9751114477308 426.14193792338097L1478.2899728486632 465.28551525107497Q1477.8617612562757 468.73639690737747 1476.4763708103146 471.93538939168707Q1475.116169281553 475.1091929587974 1472.7987888992184 477.80440709912125Q1470.5065974340832 480.52481015664443 1467.1816603637772 482.59030136698607Q1463.856723293471 484.680981494527 1459.5242295351936 485.73891601689706ZM1527.5343059732718 429.2401747388934L1518.3151622783325 429.2401747388934Q1516.4511824055853 429.2401747388934 1516.4511824055853 427.3006281145482L1516.4511824055853 427.3006281145482L1516.4511824055853 420.2225423815482Q1516.4511824055853 418.35856250880084 1518.3151622783325 418.35856250880084L1518.3151622783325 418.35856250880084L1527.5343059732718 418.35856250880084L1527.5343059732718 398.2578065837688Q1527.5343059732718 396.9227939722065 1527.9373286484606 395.5877813606442Q1528.3151624064499 394.25276874908195 1530.1035755275993 393.54747906750185L1530.1035755275993 393.54747906750185L1578.9700748942187 375.48702543561217Q1582.3453897989234 374.25276849284705 1584.5620145124608 373.62304556286483Q1586.7786392259982 373.01851155008194 1588.4662966783503 373.01851155008194L1588.4662966783503 373.01851155008194Q1589.0708306911333 373.01851155008194 1589.8264982071119 373.22002288767624Q1590.5821657230908 373.4467231424698 1591.237077570272 373.9756904036549Q1591.9171783346528 374.5046576648399 1592.3453899270407 375.43664760121356Q1592.7987904366278 376.36863753758723 1592.7987904366278 377.70365014914955L1592.7987904366278 377.70365014914955L1592.7987904366278 418.35856250880084L1608.7433750237774 418.35856250880084Q1610.6073548965246 418.35856250880084 1610.6073548965246 420.2225423815482L1610.6073548965246 420.2225423815482L1610.6073548965246 427.3006281145482Q1610.6073548965246 429.2401747388934 1608.7433750237774 429.2401747388934L1608.7433750237774 429.2401747388934L1592.7987904366278 429.2401747388934L1592.7987904366278 464.9328704102849Q1592.7987904366278 471.230099710107 1594.8642816469696 473.77418034723513Q1596.9549617745106 476.3434499015625 1601.287455532788 476.3434499015625L1601.287455532788 476.3434499015625Q1602.2698233035603 476.3434499015625 1603.3277578259303 476.1419385639682Q1604.3856923483008 475.91523830917464 1605.3176822846744 475.68853805438107Q1606.249672221048 475.46183779958744 1607.0557175714252 475.2351375447938Q1607.8617629218024 475.0336262071995 1608.3907301829877 475.0336262071995L1608.3907301829877 475.0336262071995Q1609.3479090365604 475.0336262071995 1609.3479090365604 476.16712748116754L1609.3479090365604 476.16712748116754L1609.3479090365604 482.99332404217466Q1609.3479090365604 484.7565482461248 1608.6426193549805 485.386271176107Q1607.9373296734002 486.01599410608924 1607.4083624122154 486.19231652648426L1607.4083624122154 486.19231652648426Q1604.0330475075107 487.6028958896444 1599.4738534944395 489.01347525280454Q1594.9146594813683 490.4240546159647 1589.6501757867168 491.53236697273337Q1584.3856920920657 492.64067932950206 1578.5418633018307 493.32078009388283Q1572.6980345115958 493.9756919410644 1566.8542057213608 493.9756919410644L1566.8542057213608 493.9756919410644Q1558.4411073767988 493.9756919410644 1551.2118881406032 493.14445767348786Q1544.0078578216066 492.288034488712 1538.7433741269556 489.2905533419967Q1533.453701515105 486.26788327808214 1530.5065982027882 480.34848773624935Q1527.5343059732718 474.4039032772173 1527.5343059732718 464.2275807287049L1527.5343059732718 464.2275807287049L1527.5343059732718 429.2401747388934ZM1585.2673041940407 467.5777067162102L1585.2673041940407 385.66334798412464Q1585.2673041940407 383.90012378017445 1584.8642815188523 382.79181142340576Q1584.4612588436635 381.68349906663707 1582.9751127289055 381.68349906663707L1582.9751127289055 381.68349906663707Q1582.4461454677207 381.68349906663707 1581.5897222829449 381.8598214870321Q1580.7584880153681 382.0361439074271 1579.7761202445959 382.4895444170143L1579.7761202445959 382.4895444170143L1578.3655408814357 383.0940784297972L1578.3655408814357 467.2250618754202Q1578.3655408814357 471.230099710107 1579.700553492998 473.69861359563726Q1581.010377187361 476.16712748116754 1582.9751127289055 477.60289576152695Q1584.914659353251 479.0134751246871 1587.1312840667883 479.4920645514736Q1589.3479087803257 479.9958428954593 1591.1111329842756 479.9958428954593L1591.1111329842756 479.9958428954593Q1589.7761203727132 478.91271945588994 1588.667808015945 477.80440709912125Q1587.5594956591763 476.69609474235256 1586.8290170603968 475.2351375447938Q1586.0733495444179 473.77418034723513 1585.6703268692295 471.9605783088864Q1585.2673041940407 470.1469762705376 1585.2673041940407 467.5777067162102L1585.2673041940407 467.5777067162102Z " fill="#ddc6b6" transform="matrix(0.543273301220906,0,0,0.5432733012209059,0,72.38170835239657)"/></g></svg>